<?xml version="1.0" standalone="no"?>
<!DOCTYPE svg PUBLIC "-//W3C//DTD SVG 1.1//EN" "http://www.w3.org/Graphics/SVG/1.1/DTD/svg11.dtd" >
<svg xmlns="http://www.w3.org/2000/svg" xmlns:xlink="http://www.w3.org/1999/xlink" version="1.1">
<metadata>
Created by FontForge 20160407 at Tue Sep 13 16:56:59 2016
 By Jimmy Warting
Based on DIN 1451 the German Industrial standard by the Deutsches Institut Normung - (1936/1986)
</metadata>
<defs>
<font id="PFDinStencil-Thin" horiz-adv-x="494" >
  <font-face 
    font-family="PF Din Stencil Thin"
    font-weight="250"
    font-stretch="normal"
    units-per-em="1000"
    panose-1="2 0 5 6 0 0 0 2 0 4"
    ascent="750"
    descent="-250"
    x-height="495"
    cap-height="696"
    bbox="-166 -245 972 897"
    underline-thickness="30"
    underline-position="-100"
    stemh="41"
    stemv="44"
    unicode-range="U+0020-FB02"
  />
<missing-glyph horiz-adv-x="432" 
d="M0 0v700h432v-700h-432zM216 378l160 291h-320zM236 350l166 -301v604zM56 31h320l-160 291zM30 650v-599l166 299z" />
    <glyph glyph-name="fi" unicode="fi" horiz-adv-x="457" 
d="M347 458h-337v38h94v109c0 78 53 118 113 118h150v-40h-142c-66 0 -77 -44 -77 -89v-98h244v-496h-45v458zM104 408h44v-408h-44v408z" />
    <glyph glyph-name="fl" unicode="fl" horiz-adv-x="492" 
d="M270 458h-260v38h94v108c0 79 51 118 113 118h167v-611c0 -50 18 -70 70 -70h14v-41h-17c-72 0 -111 26 -111 102v580h-115c-66 0 -77 -44 -77 -89v-97h122v-38zM104 408h44v-408h-44v408z" />
    <glyph glyph-name=".notdef" horiz-adv-x="432" 
d="M0 0v700h432v-700h-432zM216 378l160 291h-320zM236 350l166 -301v604zM56 31h320l-160 291zM30 650v-599l166 299z" />
    <glyph glyph-name="space" unicode=" " horiz-adv-x="221" 
 />
    <glyph glyph-name="exclam" unicode="!" horiz-adv-x="212" 
d="M121 188h-30l-7 508h45zM132 0h-52v61h52v-61z" />
    <glyph glyph-name="quotedbl" unicode="&#x22;" horiz-adv-x="243" 
d="M153 513v183h35v-183h-35zM59 513v183h35v-183h-35z" />
    <glyph glyph-name="numbersign" unicode="#" horiz-adv-x="466" 
d="M348 443l-26 -189h103v-30h-107l-28 -224h-36l31 224h-146c-10 -75 -20 -150 -31 -224h-35l32 224h-97v30h101l27 189h-99v32h103l30 219h33l-30 -219h146c11 73 20 146 31 219h32l-30 -219h103v-32h-107zM169 443c-8 -63 -17 -126 -26 -189h146l26 189h-146z" />
    <glyph glyph-name="dollar" unicode="$" horiz-adv-x="480" 
d="M262 -101v883h30v-92c51 -8 99 -24 137 -48l-21 -37c-35 21 -74 35 -116 41v-280c86 -25 165 -71 165 -183c0 -96 -63 -164 -165 -182v-102h-30zM210 782v-883h-30v101c-61 9 -122 32 -171 70c5 6 20 28 26 35c43 -35 92 -55 145 -63v309c-73 23 -139 63 -139 162
c0 90 54 152 139 172v97h30zM413 182c0 82 -56 117 -121 138v-277c73 15 121 61 121 139zM84 514c0 -66 44 -97 96 -117v245c-54 -17 -96 -56 -96 -128z" />
    <glyph glyph-name="ampersand" unicode="&#x26;" horiz-adv-x="625" 
d="M319 661v44c46 -4 92 -20 129 -54l-30 -33c-32 27 -63 39 -99 43zM276 704v-43c-68 -8 -89 -60 -89 -99c0 -41 27 -81 75 -144c66 -88 135 -173 202 -259c25 41 34 95 39 138c14 -1 28 -2 43 -4c-8 -60 -20 -116 -54 -170l95 -121l-47 -11c-26 32 -51 65 -77 98
c-51 -64 -124 -95 -202 -95c-112 0 -186 66 -186 168c0 79 45 149 119 206c8 -11 16 -22 25 -33c-56 -43 -100 -104 -100 -169c0 -86 68 -132 143 -132c66 0 129 29 175 88l-234 300c-40 52 -61 97 -61 140c0 64 39 132 134 142z" />
    <glyph glyph-name="quotesingle" unicode="'" horiz-adv-x="189" 
d="M77 513v183h34v-183h-34z" />
    <glyph glyph-name="parenleft" unicode="(" horiz-adv-x="262" 
d="M229 -119c-90 104 -163 260 -163 419c0 153 66 311 160 420l21 -13c-81 -117 -131 -265 -131 -402c0 -148 53 -296 132 -409z" />
    <glyph glyph-name="parenright" unicode=")" horiz-adv-x="262" 
d="M209 297c0 -157 -74 -314 -163 -417l-20 14c79 112 132 260 132 409c0 137 -50 284 -131 401l21 13c94 -108 161 -266 161 -420z" />
    <glyph glyph-name="asterisk" unicode="*" horiz-adv-x="343" 
d="M198 543l81 -96l-36 -27l-69 108l-68 -109l-35 28l79 96l-120 36l13 41l118 -49l-8 125h42l-8 -125l119 49l13 -42z" />
    <glyph glyph-name="plus" unicode="+" horiz-adv-x="466" 
d="M250 261v-195h-37v195h-188v37h188v192h37v-192h188v-37h-188z" />
    <glyph glyph-name="comma" unicode="," horiz-adv-x="189" 
d="M79 -110h-28l33 110h-16v66h57v-65z" />
    <glyph glyph-name="hyphen" unicode="-" horiz-adv-x="370" 
d="M53 245v42h263v-42h-263z" />
    <glyph glyph-name="period" unicode="." horiz-adv-x="169" 
d="M113 0h-56v65h56v-65z" />
    <glyph glyph-name="slash" unicode="/" horiz-adv-x="407" 
d="M32 -50h-39l378 789h40c-126 -264 -253 -527 -379 -789z" />
    <glyph glyph-name="zero" unicode="0" horiz-adv-x="473" 
d="M421 512v-328c0 -108 -55 -182 -163 -187v40c84 8 120 63 120 155v312c0 87 -40 145 -120 154v41c107 -7 163 -79 163 -187zM94 502v-311c0 -96 41 -146 120 -154v-40c-106 5 -163 69 -163 183v332c0 112 69 181 163 187v-41c-75 -8 -120 -60 -120 -156z" />
    <glyph glyph-name="one" unicode="1" horiz-adv-x="380" 
d="M185 0v647l-102 -68v49l101 68h44v-696h-43z" />
    <glyph glyph-name="two" unicode="2" horiz-adv-x="480" 
d="M211 698v-43c-54 -9 -99 -49 -113 -105l-45 7c19 79 81 131 158 141zM255 656v42c104 -7 166 -75 166 -165c0 -43 -16 -92 -48 -134l-305 -399h-24v41l283 370c23 29 47 68 47 119c0 64 -41 118 -119 126zM126 0l34 43h258v-43h-292z" />
    <glyph glyph-name="three" unicode="3" horiz-adv-x="470" 
d="M196 700c0 -13 1 -27 1 -40c-49 -7 -96 -41 -112 -92l-42 9c20 68 82 118 153 123zM197 34v-39c-70 3 -141 36 -162 120l43 9c15 -52 56 -84 119 -90zM304 370c0 -2 -1 -4 -1 -6c93 -26 118 -118 118 -169c0 -111 -73 -196 -180 -200v39c84 8 136 72 136 157
c0 95 -71 155 -150 155h-41v39h33c79 0 142 51 142 138c0 70 -43 126 -120 136v41c113 -7 164 -89 164 -175c0 -48 -19 -124 -101 -155z" />
    <glyph glyph-name="four" unicode="4" horiz-adv-x="480" 
d="M132 166h216v215h43v-215h62v-40h-62v-126h-43v126h-234zM35 126v38l252 532h45l-269 -570h-28z" />
    <glyph glyph-name="five" unicode="5" horiz-adv-x="480" 
d="M162 654v42h247v-42h-247zM162 383v40c30 19 69 23 95 23c118 0 171 -77 171 -185v-56c0 -110 -44 -210 -192 -210c-91 0 -152 41 -175 120l41 9c18 -58 66 -92 136 -92c95 0 145 63 147 143c1 26 1 52 1 77c0 102 -48 154 -134 154c-27 0 -58 -4 -90 -23zM118 696v-344
h-41v344h41z" />
    <glyph glyph-name="six" unicode="6" horiz-adv-x="480" 
d="M263 -5v40c75 5 129 62 129 158c0 105 -65 159 -148 159c-15 0 -31 -1 -47 -5l20 41c13 2 26 3 39 3c97 0 181 -68 181 -198c0 -116 -75 -194 -174 -198zM219 35v-41c-109 7 -164 89 -164 189c0 54 17 115 48 174l180 344l45 -6l-188 -360c-25 -48 -41 -101 -41 -150
c0 -75 39 -142 120 -150z" />
    <glyph glyph-name="seven" unicode="7" horiz-adv-x="436" 
d="M399 696v-43c-84 -218 -169 -435 -254 -653h-48l271 696h31zM320 696l-17 -42h-271v42h288z" />
    <glyph glyph-name="eight" unicode="8" horiz-adv-x="480" 
d="M265 -5v39c87 9 137 73 137 153c0 89 -70 154 -158 154c-82 0 -158 -63 -158 -154c0 -83 51 -138 135 -152v-39c-106 9 -177 81 -177 189c0 61 33 140 117 174c-81 32 -101 100 -101 157c0 96 64 175 161 182v-39c-62 -6 -120 -58 -120 -142c0 -92 72 -140 143 -140
c76 0 144 50 144 140c0 82 -58 137 -123 142v39c101 -6 165 -86 165 -181c0 -62 -31 -131 -104 -158c89 -28 118 -111 118 -173c0 -106 -74 -185 -179 -191z" />
    <glyph glyph-name="nine" unicode="9" horiz-adv-x="480" 
d="M227 702v-40c-74 -6 -128 -63 -128 -159c0 -106 63 -150 150 -150c15 0 29 2 44 4l-20 -39c-13 -2 -28 -3 -39 -3c-97 0 -180 56 -180 188c0 116 75 193 173 199zM271 662v41c109 -7 165 -89 165 -189c0 -55 -17 -116 -48 -175l-181 -343l-45 6l189 360
c25 47 40 101 40 150c0 76 -39 142 -120 150z" />
    <glyph glyph-name="colon" unicode=":" horiz-adv-x="174" 
d="M114 0h-56v65h56v-65zM114 314h-56v66h56v-66z" />
    <glyph glyph-name="semicolon" unicode=";" horiz-adv-x="184" 
d="M124 314h-56v65h56v-65zM79 -110h-29l34 110h-16v66h57v-56c-12 -42 -29 -81 -46 -120z" />
    <glyph glyph-name="less" unicode="&#x3c;" horiz-adv-x="466" 
d="M430 479v-41l-355 -159l356 -158v-42l-401 183v36z" />
    <glyph glyph-name="equal" unicode="=" horiz-adv-x="466" 
d="M25 339v38h413v-38h-413zM25 162v39h413v-39h-413z" />
    <glyph glyph-name="greater" unicode="&#x3e;" horiz-adv-x="466" 
d="M32 438v41l400 -181v-36l-401 -183v42l356 158z" />
    <glyph glyph-name="question" unicode="?" horiz-adv-x="439" 
d="M247 657c0 15 -1 29 -1 43c97 -8 160 -75 160 -167c0 -75 -43 -126 -85 -171c-48 -53 -76 -84 -76 -143v-59h-46v61c0 47 16 83 42 115c36 44 119 112 119 191c0 49 -21 117 -113 130zM203 700v-42c-74 -13 -118 -88 -125 -133c-14 3 -30 5 -45 8c24 100 90 157 170 167z
M247 0h-52v61h52v-61z" />
    <glyph glyph-name="at" unicode="@" horiz-adv-x="774" 
d="M452 356v-33h-93c-52 0 -93 -23 -93 -73s32 -75 101 -75c26 0 61 5 86 17c2 -11 5 -21 8 -32c-24 -13 -53 -18 -79 -20c-79 0 -153 21 -153 106c0 62 40 110 121 110h102zM484 247v155c0 54 -24 90 -96 90c-35 0 -75 -6 -111 -36l-21 28c43 34 91 43 132 43
c75 0 133 -26 133 -123v-153c0 -45 20 -67 68 -67c83 0 115 81 115 188c0 185 -131 297 -299 297c-194 0 -330 -139 -330 -334c0 -209 140 -338 339 -338c82 0 145 13 200 40c5 -11 9 -23 14 -35c-67 -24 -132 -41 -210 -41c-221 0 -381 143 -381 374c0 209 146 368 364 368
c195 0 340 -130 340 -331c0 -139 -58 -223 -154 -223c-64 0 -103 34 -103 98z" />
    <glyph glyph-name="A" unicode="A" horiz-adv-x="587" 
d="M63 0h-48c85 232 172 464 257 696h40c55 -148 110 -294 164 -441h-47l-137 375h-2zM187 211h305c26 -71 53 -141 79 -211h-49l-63 170h-287z" />
    <glyph glyph-name="B" unicode="B" horiz-adv-x="601" 
d="M167 340v41h154c97 0 159 55 159 138c0 80 -57 135 -159 135h-154v42h162c128 0 198 -75 198 -174c0 -53 -29 -133 -117 -158c95 -22 133 -108 133 -177c0 -106 -74 -179 -170 -186c-16 -1 -33 -1 -50 -1h-156v42h170c106 0 158 65 158 149c0 76 -52 149 -160 149h-168z
M123 696v-696h-47v696h47z" />
    <glyph glyph-name="C" unicode="C" horiz-adv-x="550" 
d="M322 657v43c94 -5 164 -58 197 -130l-43 -20c-25 57 -82 100 -154 107zM278 700v-43c-115 -14 -165 -103 -165 -206v-207c0 -111 59 -208 195 -208c85 0 143 46 175 117l42 -19c-35 -86 -113 -141 -218 -141c-168 0 -240 117 -240 253v208c0 124 69 233 211 246z" />
    <glyph glyph-name="D" unicode="D" horiz-adv-x="607" 
d="M124 696v-696h-47v696h47zM168 0v43h126c158 0 209 97 209 231v143c0 178 -82 236 -209 236h-126v43h133c104 0 182 -37 224 -126c23 -48 25 -122 25 -209c0 -100 -1 -174 -24 -227c-42 -100 -126 -134 -239 -134h-119z" />
    <glyph glyph-name="E" unicode="E" horiz-adv-x="529" 
d="M167 653v43h332v-43h-332zM167 341v42h265v-42h-265zM167 0v43h346v-43h-346zM123 696v-696h-46v696h46z" />
    <glyph glyph-name="F" unicode="F" horiz-adv-x="510" 
d="M168 331v41h277v-41h-277zM168 653v43h331v-43h-331zM124 696v-696h-47v696h47z" />
    <glyph glyph-name="G" unicode="G" horiz-adv-x="594" 
d="M491 309h-158v43h204v-112c0 -131 -78 -242 -221 -246v40c115 5 175 99 175 199v76zM316 656v44c94 -3 168 -58 201 -130l-40 -20c-29 57 -86 101 -161 106zM271 699v-44c-113 -8 -169 -101 -169 -205v-208c0 -108 53 -197 169 -207v-41c-147 7 -215 114 -215 248v211
c0 125 73 239 215 246z" />
    <glyph glyph-name="H" unicode="H" horiz-adv-x="623" 
d="M546 424h-47v272h47v-272zM167 339v41h379v-380h-47v339h-332zM123 696v-696h-47v696h47z" />
    <glyph glyph-name="I" unicode="I" horiz-adv-x="220" 
d="M86 0v696h47v-696h-47z" />
    <glyph glyph-name="J" unicode="J" horiz-adv-x="470" 
d="M173 -6c-55 0 -121 20 -158 54l28 34c37 -32 92 -44 130 -44c91 0 162 43 162 175v483h46v-496c0 -146 -98 -206 -208 -206z" />
    <glyph glyph-name="K" unicode="K" horiz-adv-x="591" 
d="M123 695l-1 -695h-45v695h46zM167 238v67l319 391h55zM317 352l31 37l231 -389h-54z" />
    <glyph glyph-name="L" unicode="L" horiz-adv-x="514" 
d="M123 696l1 -696h-47v696h46zM168 0v43h331v-43h-331z" />
    <glyph glyph-name="M" unicode="M" horiz-adv-x="748" 
d="M420 201c-8 15 -15 31 -23 47c76 149 153 298 229 448h44v-696h-45v598h-1zM402 142h-49l-276 547v7h46zM76 594l47 -100l-1 -494h-46v594z" />
    <glyph glyph-name="N" unicode="N" horiz-adv-x="658" 
d="M76 601c16 -23 31 -47 47 -71v-530h-47v601zM580 92c-15 23 -30 46 -46 69v535h46v-604zM76 687v9h48l454 -686v-10h-46c-151 229 -304 458 -456 687z" />
    <glyph glyph-name="O" unicode="O" horiz-adv-x="592" 
d="M274 39v-45c-150 10 -217 115 -217 241v218c0 126 70 239 217 247v-45c-117 -10 -171 -98 -171 -204v-206c0 -106 53 -197 171 -206zM318 -6v44c111 7 170 92 170 211v202c0 108 -55 197 -170 204v45c145 -8 217 -111 217 -247v-207c0 -146 -83 -247 -217 -252z" />
    <glyph glyph-name="P" unicode="P" horiz-adv-x="558" 
d="M168 653v43h159c111 0 214 -55 214 -202c0 -92 -64 -196 -204 -196h-169v44h162c117 0 161 78 161 155c0 105 -73 156 -165 156h-158zM124 696v-696h-47v696h47z" />
    <glyph glyph-name="Q" unicode="Q" horiz-adv-x="605" 
d="M276 37v-43c-150 9 -220 116 -220 248v211c0 126 74 241 220 247v-45c-116 -8 -174 -97 -174 -204v-207c0 -108 57 -196 174 -207zM344 177l26 31c31 -24 62 -50 93 -75c16 32 24 71 24 115v203c0 107 -57 195 -167 204v45c135 -8 214 -112 214 -247v-208
c0 -55 -11 -103 -32 -142c32 -27 66 -53 99 -80l-26 -31l-97 77c-36 -44 -92 -71 -158 -74v43c50 5 94 26 121 60z" />
    <glyph glyph-name="R" unicode="R" horiz-adv-x="576" 
d="M347 279h52l134 -279h-54zM168 655v41h177c118 0 198 -68 198 -180c0 -100 -65 -194 -206 -194h-169v43h160c104 0 166 52 166 151c0 98 -73 139 -161 139h-165zM123 696v-696h-46v696h46z" />
    <glyph glyph-name="S" unicode="S" horiz-adv-x="538" 
d="M291 658v44c71 -2 133 -22 183 -53l-23 -39c-47 27 -99 44 -160 48zM246 37v-43c-81 3 -161 26 -224 74l27 38c58 -44 125 -66 197 -69zM291 -6v42c96 5 167 57 167 144c0 211 -404 112 -404 339c0 105 77 174 193 182v-44c-79 -6 -146 -45 -146 -135
c0 -185 405 -97 405 -338c0 -109 -83 -184 -215 -190z" />
    <glyph glyph-name="T" unicode="T" horiz-adv-x="504" 
d="M271 696v-696h-46v655h-207v41h253zM315 655v41h171v-41h-171z" />
    <glyph glyph-name="U" unicode="U" horiz-adv-x="620" 
d="M290 39v-44c-148 8 -218 101 -218 244v457h46v-447c0 -118 53 -196 172 -210zM334 -4v43c111 8 168 85 168 203v454h47v-464c0 -134 -79 -233 -215 -236z" />
    <glyph glyph-name="V" unicode="V" horiz-adv-x="533" 
d="M65 696l229 -696h-50c-76 232 -152 464 -229 696h50zM313 79c-8 23 -16 48 -23 71l178 546h48c-68 -206 -135 -412 -203 -617z" />
    <glyph glyph-name="W" unicode="W" horiz-adv-x="782" 
d="M253 84l-23 90l139 522h44l189 -696h-45l-167 602l-1 -1zM58 696l171 -696h-47l-172 696h48zM625 84l-23 90l123 522h46z" />
    <glyph glyph-name="X" unicode="X" horiz-adv-x="511" 
d="M205 318l26 -44l-163 -274h-52zM305 402l-25 43l146 251h52zM441 0l-411 696h53l411 -696h-53z" />
    <glyph glyph-name="Y" unicode="Y" horiz-adv-x="481" 
d="M58 696l204 -405v-291h-44v285l-208 411h48zM287 336l-22 47l158 313h47z" />
    <glyph glyph-name="Z" unicode="Z" horiz-adv-x="488" 
d="M103 0l27 42h329v-42h-356zM26 0v39l406 657h26v-37l-406 -659h-26zM379 696c-8 -14 -16 -28 -25 -42h-300v42h325z" />
    <glyph glyph-name="bracketleft" unicode="[" horiz-adv-x="234" 
d="M76 -109v805h141v-34h-98v-737h98v-34h-141z" />
    <glyph glyph-name="backslash" unicode="\" horiz-adv-x="407" 
d="M408 -44l-35 -6c-126 259 -250 521 -375 781l35 8z" />
    <glyph glyph-name="bracketright" unicode="]" horiz-adv-x="234" 
d="M35 -109v34h98v737h-98v34h140v-805h-140z" />
    <glyph glyph-name="asciicircum" unicode="^" horiz-adv-x="466" 
d="M421 334h-41c-50 105 -98 211 -148 316l-145 -318h-42c57 120 113 241 170 360h36z" />
    <glyph glyph-name="underscore" unicode="_" horiz-adv-x="493" 
d="M0 -106v37h493v-37h-493z" />
    <glyph glyph-name="grave" unicode="`" horiz-adv-x="482" 
d="M335 580l-26 -16l-105 141l45 25z" />
    <glyph glyph-name="a" unicode="a" horiz-adv-x="481" 
d="M328 55v-40c-31 -15 -74 -21 -116 -21c-96 0 -176 46 -176 141c0 80 54 140 160 140h133v-38h-124c-78 0 -126 -33 -126 -100c0 -68 55 -105 139 -105c39 0 75 6 110 23zM235 460c-46 0 -96 -9 -139 -49l-27 29c43 41 97 61 169 61c105 0 179 -32 179 -158v-343h-44v340
c0 75 -34 120 -138 120z" />
    <glyph glyph-name="b" unicode="b" horiz-adv-x="480" 
d="M99 705v-705h-43v705h43zM144 18v40c32 -19 64 -26 98 -26c122 0 146 122 146 218c0 95 -19 209 -146 209c-36 0 -71 -9 -98 -26v40c28 18 66 26 101 26c154 0 188 -125 188 -247c0 -146 -50 -259 -186 -259c-36 0 -74 7 -103 25z" />
    <glyph glyph-name="c" unicode="c" horiz-adv-x="429" 
d="M92 275h-44c12 163 109 226 212 226c60 0 106 -21 144 -54l-27 -32c-27 25 -69 47 -112 47c-105 0 -164 -68 -173 -187zM47 231h44c3 -127 51 -198 175 -198c52 0 95 22 121 46l25 -30c-38 -34 -86 -56 -150 -56c-124 0 -212 62 -215 238z" />
    <glyph glyph-name="d" unicode="d" horiz-adv-x="480" 
d="M380 0v722h43v-722h-43zM336 60v-41c-28 -18 -72 -25 -109 -25c-136 0 -181 101 -181 245c0 121 34 262 191 262c33 0 71 -7 99 -25v-41c-27 17 -64 26 -99 26c-127 0 -146 -128 -146 -223c0 -96 19 -204 141 -204c39 0 72 7 104 26z" />
    <glyph glyph-name="e" unicode="e" horiz-adv-x="484" 
d="M256 -6c-100 0 -210 42 -210 251c0 184 94 250 179 255v-40c-82 -9 -134 -77 -134 -212c0 -126 38 -216 166 -216c45 0 89 15 123 41l25 -32c-42 -33 -97 -47 -149 -47zM136 240v37h259c-2 112 -51 173 -126 182v40c108 -6 171 -104 171 -224v-35h-304z" />
    <glyph glyph-name="f" unicode="f" horiz-adv-x="281" 
d="M104 415h45v-415h-45v415zM274 458h-263v38h93v110c0 78 51 118 113 118h56v-41h-47c-67 0 -77 -43 -77 -88v-99h125v-38z" />
    <glyph glyph-name="g" unicode="g" horiz-adv-x="486" 
d="M379 -3v499h43v-492c0 -149 -93 -208 -204 -208c-46 0 -101 15 -140 47c9 11 17 23 25 34c29 -22 71 -40 112 -40c105 0 164 61 164 160zM336 472v-40c-32 19 -64 29 -99 29c-122 0 -146 -122 -146 -218c0 -98 19 -208 146 -208c36 0 71 8 99 25v-40
c-28 -18 -67 -24 -99 -24c-157 0 -191 115 -191 245c0 143 50 261 186 261c37 0 73 -10 104 -30z" />
    <glyph glyph-name="h" unicode="h" horiz-adv-x="504" 
d="M107 723v-723h-44v723h44zM151 426v39c34 23 78 35 121 35c104 0 164 -63 164 -173v-327h-43v312c0 95 -43 147 -128 147c-40 0 -82 -13 -114 -33z" />
    <glyph glyph-name="i" unicode="i" horiz-adv-x="197" 
d="M76 622v80h43v-80h-43zM119 0h-43v496h43v-496z" />
    <glyph glyph-name="j" unicode="j" horiz-adv-x="213" 
d="M9 -203h-25v40h20c56 3 78 33 78 92v566h44v-571c0 -73 -35 -127 -117 -127zM82 622v80h44v-80h-44z" />
    <glyph glyph-name="k" unicode="k" horiz-adv-x="476" 
d="M423 495l-316 -353v-142h-44v723h44v-523l262 295h54zM260 250l29 32l177 -282h-51z" />
    <glyph glyph-name="l" unicode="l" horiz-adv-x="218" 
d="M184 0c-72 0 -111 26 -111 102v620h44v-611c0 -50 18 -70 70 -70h14v-41h-17z" />
    <glyph glyph-name="m" unicode="m" horiz-adv-x="811" 
d="M106 495v-495h-43v495h43zM150 427v38c34 22 75 35 118 35c111 0 163 -69 163 -178v-322h-44v314c0 97 -48 146 -124 146c-37 0 -76 -12 -113 -33zM460 425c-5 13 -9 24 -15 36c37 24 88 40 136 40c114 0 167 -66 167 -174v-327h-44v316c0 97 -43 145 -124 145
c-39 0 -82 -12 -120 -36z" />
    <glyph glyph-name="n" unicode="n" horiz-adv-x="500" 
d="M107 495v-495h-44v495h44zM151 427v38c34 23 78 35 121 35c104 0 164 -63 164 -173v-327h-43v312c0 95 -43 148 -128 148c-40 0 -82 -13 -114 -33z" />
    <glyph glyph-name="o" unicode="o" horiz-adv-x="496" 
d="M228 34v-39c-111 4 -181 81 -181 253c0 164 76 247 181 252v-40c-77 -9 -137 -64 -137 -213c0 -147 55 -205 137 -213zM272 -5v39c102 9 132 103 132 215c0 104 -30 200 -132 211v40c129 -8 177 -119 177 -253c0 -159 -66 -247 -177 -252z" />
    <glyph glyph-name="p" unicode="p" horiz-adv-x="487" 
d="M106 495v-694h-43v694h43zM150 431v40c31 21 71 30 109 30c136 0 181 -108 181 -253c0 -119 -34 -254 -191 -254c-33 0 -71 6 -99 24v41c27 -17 66 -25 99 -25c127 0 146 120 146 215c0 96 -19 211 -141 211c-34 0 -72 -10 -104 -29z" />
    <glyph glyph-name="q" unicode="q" horiz-adv-x="487" 
d="M380 -199v694h43v-694h-43zM336 472v-40c-32 19 -64 29 -99 29c-122 0 -146 -122 -146 -218c0 -95 19 -208 146 -208c36 0 71 8 99 25v-40c-28 -18 -67 -24 -99 -24c-157 0 -191 121 -191 245c0 143 50 261 186 261c37 0 73 -10 104 -30z" />
    <glyph glyph-name="r" unicode="r" horiz-adv-x="344" 
d="M113 495v-495h-43v495h43zM345 488l-19 -41c-18 8 -41 11 -58 11c-33 0 -72 -11 -112 -50v46c38 38 78 47 118 47c20 0 52 -6 71 -13z" />
    <glyph glyph-name="s" unicode="s" horiz-adv-x="438" 
d="M245 463v39c56 -3 104 -18 143 -44l-21 -34c-34 22 -78 36 -122 39zM201 33v-40c-66 2 -124 21 -173 61l24 34c42 -34 92 -51 149 -55zM245 -6v39c57 6 115 32 115 102c0 62 -56 87 -136 102c-101 20 -169 45 -169 130c0 75 56 129 146 135v-40c-60 -3 -104 -37 -104 -92
c0 -53 36 -74 137 -94c94 -19 170 -51 170 -141c0 -73 -55 -135 -159 -141z" />
    <glyph glyph-name="t" unicode="t" horiz-adv-x="282" 
d="M89 416h43v-289c0 -62 16 -88 79 -88h56v-39h-71c-74 0 -107 38 -107 113v303zM13 458v38h76v124h43v-124h130v-38h-249z" />
    <glyph glyph-name="u" unicode="u" 
d="M388 0v495h43v-495h-43zM344 69v-38c-35 -23 -85 -36 -128 -36c-102 0 -153 59 -153 171v329h44v-313c0 -96 32 -147 116 -147c40 0 88 14 121 34z" />
    <glyph glyph-name="v" unicode="v" horiz-adv-x="439" 
d="M266 63l-22 57l138 375h46zM58 495l184 -495h-44l-187 495h47z" />
    <glyph glyph-name="w" unicode="w" horiz-adv-x="689" 
d="M236 61l-20 64c37 123 73 246 109 370h41l155 -495h-41l-135 426h-2zM55 495l156 -495h-41l-159 495h44zM547 58l-19 64l106 373h42z" />
    <glyph glyph-name="x" unicode="x" horiz-adv-x="401" 
d="M149 216l26 -39l-116 -177h-50zM252 295l-26 39l104 161h51zM341 0l-321 495h51l320 -495h-50z" />
    <glyph glyph-name="y" unicode="y" horiz-adv-x="433" 
d="M191 104l-21 -62l-161 453h48zM168 -91l207 586h46l-217 -607c-22 -63 -65 -89 -113 -89h-32v39h30c33 0 62 22 79 71z" />
    <glyph glyph-name="z" unicode="z" horiz-adv-x="402" 
d="M371 457l-332 -457h-20v40l302 417h-282v38h332v-38zM94 0l30 40h255v-40h-285z" />
    <glyph glyph-name="braceleft" unicode="{" horiz-adv-x="234" 
d="M100 135c0 86 -14 134 -71 149v25c59 15 72 88 72 151v137c0 61 29 99 79 99h43v-29h-31c-48 0 -55 -46 -55 -85v-141c0 -82 -36 -133 -67 -143c34 -14 67 -60 67 -138v-157c0 -44 11 -83 55 -83h31v-29h-43c-50 0 -80 34 -80 103v141z" />
    <glyph glyph-name="bar" unicode="|" horiz-adv-x="174" 
d="M72 -162v878h34v-878h-34z" />
    <glyph glyph-name="braceright" unicode="}" horiz-adv-x="234" 
d="M153 136v-142c0 -69 -31 -103 -80 -103h-43v29h31c48 0 55 45 55 83v158c0 78 33 124 67 138c-36 12 -67 71 -67 161v112c0 46 -5 95 -55 95h-31v29h43c49 0 79 -38 79 -99v-136c0 -65 12 -136 72 -151v-25c-57 -15 -71 -63 -71 -149z" />
    <glyph glyph-name="asciitilde" unicode="~" horiz-adv-x="466" 
d="M334 235c-43 0 -151 39 -192 39c-12 -1 -24 -4 -40 -19l-26 -24l-25 17c17 44 47 68 85 68c45 0 153 -37 192 -37c11 0 21 3 35 16l27 25l24 -17c-16 -40 -42 -68 -80 -68z" />
    <glyph glyph-name="agrave" unicode="&#xe0;" horiz-adv-x="487" 
d="M328 55v-40c-31 -15 -74 -21 -116 -21c-96 0 -176 46 -176 141c0 80 54 140 160 140h133v-38h-124c-78 0 -126 -33 -126 -100c0 -68 55 -105 139 -105c39 0 75 6 110 23zM235 460c-46 0 -96 -9 -139 -49l-27 29c43 41 97 61 169 61c105 0 179 -32 179 -158v-343h-44v340
c0 75 -34 120 -138 120zM288 580l-26 -16l-105 141l45 25z" />
    <glyph glyph-name="acircumflex" unicode="&#xe2;" horiz-adv-x="487" 
d="M328 55v-40c-31 -15 -74 -21 -116 -21c-96 0 -176 46 -176 141c0 80 54 140 160 140h133v-38h-124c-78 0 -126 -33 -126 -100c0 -68 55 -105 139 -105c39 0 75 6 110 23zM235 460c-46 0 -96 -9 -139 -49l-27 29c43 41 97 61 169 61c105 0 179 -32 179 -158v-343h-44v340
c0 75 -34 120 -138 120zM370 557l-126 97l-127 -98l-21 21l132 124h37l126 -123z" />
    <glyph glyph-name="adieresis" unicode="&#xe4;" horiz-adv-x="487" 
d="M328 55v-40c-31 -15 -74 -21 -116 -21c-96 0 -176 46 -176 141c0 80 54 140 160 140h133v-38h-124c-78 0 -126 -33 -126 -100c0 -68 55 -105 139 -105c39 0 75 6 110 23zM235 460c-46 0 -96 -9 -139 -49l-27 29c43 41 97 61 169 61c105 0 179 -32 179 -158v-343h-44v340
c0 75 -34 120 -138 120zM150 608v82h45v-82h-45zM303 608v82h44v-82h-44z" />
    <glyph glyph-name="dieresis" unicode="&#xa8;" horiz-adv-x="474" 
d="M149 608v82h45v-82h-45zM302 608v82h44v-82h-44z" />
    <glyph glyph-name="ccedilla" unicode="&#xe7;" horiz-adv-x="429" 
d="M47 231h44c3 -127 51 -198 175 -198c52 0 95 22 121 46l25 -30c-38 -34 -86 -56 -149 -56l-15 -46c77 -6 94 -48 94 -76c0 -30 -22 -72 -103 -72c-24 0 -44 5 -64 13l10 27c22 -7 35 -11 54 -11c32 0 66 7 66 44c0 32 -37 48 -81 48l-10 9l20 65c-109 9 -184 74 -187 237
zM92 275h-44c12 163 109 226 212 226c60 0 106 -21 144 -54l-27 -32c-27 25 -69 47 -112 47c-105 0 -164 -68 -173 -187z" />
    <glyph glyph-name="eacute" unicode="&#xe9;" horiz-adv-x="484" 
d="M256 -6c-100 0 -210 42 -210 251c0 184 94 250 179 255v-40c-82 -9 -134 -77 -134 -212c0 -126 38 -216 166 -216c45 0 89 15 123 41l25 -32c-42 -33 -97 -47 -149 -47zM136 240v37h259c-2 112 -51 173 -126 182v40c108 -6 171 -104 171 -224v-35h-304zM247 565l-26 16
l87 150l46 -25z" />
    <glyph glyph-name="egrave" unicode="&#xe8;" horiz-adv-x="484" 
d="M256 -6c-100 0 -210 42 -210 251c0 184 94 250 179 255v-40c-82 -9 -134 -77 -134 -212c0 -126 38 -216 166 -216c45 0 89 15 123 41l25 -32c-42 -33 -97 -47 -149 -47zM136 240v37h259c-2 112 -51 173 -126 182v40c108 -6 171 -104 171 -224v-35h-304zM280 580l-26 -16
l-105 141l45 25z" />
    <glyph glyph-name="ecircumflex" unicode="&#xea;" horiz-adv-x="484" 
d="M256 -6c-100 0 -210 42 -210 251c0 184 94 250 179 255v-40c-82 -9 -134 -77 -134 -212c0 -126 38 -216 166 -216c45 0 89 15 123 41l25 -32c-42 -33 -97 -47 -149 -47zM136 240v37h259c-2 112 -51 173 -126 182v40c108 -6 171 -104 171 -224v-35h-304zM373 557l-126 97
l-127 -98l-21 21l132 124h37l126 -123z" />
    <glyph glyph-name="edieresis" unicode="&#xeb;" horiz-adv-x="484" 
d="M256 -6c-100 0 -210 42 -210 251c0 184 94 250 179 255v-40c-82 -9 -134 -77 -134 -212c0 -126 38 -216 166 -216c45 0 89 15 123 41l25 -32c-42 -33 -97 -47 -149 -47zM136 240v37h259c-2 112 -51 173 -126 182v40c108 -6 171 -104 171 -224v-35h-304zM151 608v82h45
v-82h-45zM304 608v82h44v-82h-44z" />
    <glyph glyph-name="sterling" unicode="&#xa3;" horiz-adv-x="480" 
d="M264 658v40c73 -3 130 -36 168 -83l-32 -29c-32 46 -86 69 -136 72zM220 698v-41c-51 -3 -105 -36 -105 -127c0 -44 30 -94 39 -148h-44c-12 52 -40 100 -40 147c0 81 47 163 150 169zM39 343h300v-36h-172c0 -94 -16 -186 -74 -266h346v-41h-398v37c53 70 84 158 84 270
h-86v36z" />
    <glyph glyph-name="trademark" unicode="&#x2122;" horiz-adv-x="806" 
d="M695 310v305l-129 -247h-27l-130 247v-305h-34v385h34l145 -281l143 281h33v-385h-35zM195 661v-350h-36v350h-120v35h276v-35h-120z" />
    <glyph glyph-name="icircumflex" unicode="&#xee;" horiz-adv-x="198" 
d="M121 0h-44v496h44v-496zM226 557l-126 97l-127 -98l-21 21l132 124h37l126 -123z" />
    <glyph glyph-name="idieresis" unicode="&#xef;" horiz-adv-x="198" 
d="M2 608v82h45v-82h-45zM155 608v82h44v-82h-44zM121 0h-44v496h44v-496z" />
    <glyph glyph-name="bullet" unicode="&#x2022;" horiz-adv-x="354" 
d="M271 264c0 -52 -41 -92 -91 -92c-51 0 -92 41 -92 92s41 92 92 92c50 0 91 -41 91 -92z" />
    <glyph glyph-name="ocircumflex" unicode="&#xf4;" horiz-adv-x="502" 
d="M228 34v-39c-111 4 -181 81 -181 253c0 164 76 247 181 252v-40c-77 -9 -137 -64 -137 -213c0 -147 55 -205 137 -213zM272 -5v39c102 9 132 103 132 215c0 104 -30 200 -132 211v40c129 -8 177 -119 177 -253c0 -159 -66 -247 -177 -252zM378 557l-126 97l-127 -98
l-21 21l132 124h37l126 -123z" />
    <glyph glyph-name="odieresis" unicode="&#xf6;" horiz-adv-x="502" 
d="M228 34v-39c-111 4 -181 81 -181 253c0 164 76 247 181 252v-40c-77 -9 -137 -64 -137 -213c0 -147 55 -205 137 -213zM272 -5v39c102 9 132 103 132 215c0 104 -30 200 -132 211v40c129 -8 177 -119 177 -253c0 -159 -66 -247 -177 -252zM160 608v82h45v-82h-45z
M313 608v82h44v-82h-44z" />
    <glyph glyph-name="sfthyphen" unicode="&#xad;" horiz-adv-x="370" 
d="M53 245v42h263v-42h-263z" />
    <glyph glyph-name="ugrave" unicode="&#xf9;" 
d="M388 0v495h43v-495h-43zM344 69v-38c-35 -23 -85 -36 -128 -36c-102 0 -153 59 -153 171v329h44v-313c0 -96 32 -147 116 -147c40 0 88 14 121 34zM296 580l-26 -16l-105 141l45 25z" />
    <glyph glyph-name="ucircumflex" unicode="&#xfb;" 
d="M388 0v495h43v-495h-43zM344 69v-38c-35 -23 -85 -36 -128 -36c-102 0 -153 59 -153 171v329h44v-313c0 -96 32 -147 116 -147c40 0 88 14 121 34zM380 557l-126 97l-127 -98l-21 21l132 124h37l126 -123z" />
    <glyph glyph-name="udieresis" unicode="&#xfc;" 
d="M388 0v495h43v-495h-43zM344 69v-38c-35 -23 -85 -36 -128 -36c-102 0 -153 59 -153 171v329h44v-313c0 -96 32 -147 116 -147c40 0 88 14 121 34zM153 608v82h45v-82h-45zM306 608v82h44v-82h-44z" />
    <glyph glyph-name="dagger" unicode="&#x2020;" horiz-adv-x="447" 
d="M246 411v-605h-46v605h-177v40h177v245h46v-245h178v-40h-178z" />
    <glyph glyph-name="Delta" unicode="&#x394;" horiz-adv-x="585" 
d="M290 639l-225 -639h-50l253 696h49l254 -696h-452l15 41h371l-212 598h-3z" />
    <glyph glyph-name="Delta" unicode="&#x2206;" horiz-adv-x="585" 
d="M290 639l-225 -639h-50l253 696h49l254 -696h-452l15 41h371l-212 598h-3z" />
    <glyph glyph-name="germandbls" unicode="&#xdf;" 
d="M219 722v-38c-93 -10 -113 -93 -113 -151v-533h-43v533c0 103 55 182 156 189zM450 224c0 -124 -52 -230 -190 -230c-43 0 -74 8 -103 23v42c31 -18 67 -25 98 -25c125 0 150 100 150 192c0 97 -49 166 -137 166h-16v38h16c69 0 110 67 110 124c0 54 -27 119 -108 130v38
c102 -6 153 -84 153 -159c0 -50 -18 -116 -84 -147v-4c79 -24 111 -108 111 -188z" />
    <glyph glyph-name="registered" unicode="&#xae;" horiz-adv-x="546" 
d="M274 281c-113 0 -203 91 -203 211s90 211 203 211c117 0 204 -91 204 -211s-89 -211 -204 -211zM274 680c-100 0 -176 -82 -176 -188s76 -188 176 -188c101 0 178 82 178 188s-77 188 -178 188zM315 482c19 -38 39 -75 58 -112h-29l-56 109h-62v-109h-25v243h97
c41 0 72 -24 72 -65c0 -33 -21 -59 -55 -66zM293 590h-67v-88h66c30 0 52 16 52 46s-23 42 -51 42z" />
    <glyph glyph-name="copyright" unicode="&#xa9;" horiz-adv-x="780" 
d="M496 226l35 -16c-23 -53 -72 -86 -134 -86c-101 0 -147 71 -147 153v122c0 81 51 151 147 151c62 0 109 -32 132 -81l-34 -17c-17 36 -52 62 -97 62c-75 0 -111 -54 -111 -117v-120c0 -62 36 -118 111 -118c46 0 79 26 98 67zM393 -10c-194 0 -341 151 -341 351
c0 201 148 352 341 352c194 0 343 -151 343 -352c0 -200 -149 -351 -343 -351zM393 658c-171 0 -303 -138 -303 -317c0 -177 132 -317 303 -317c173 0 305 140 305 317c0 179 -132 317 -305 317z" />
    <glyph glyph-name="section" unicode="&#xa7;" horiz-adv-x="447" 
d="M51 -14l26 27c41 -35 90 -52 136 -52c80 0 140 31 140 111c0 64 -61 97 -141 125c-115 40 -161 76 -161 156c0 38 22 80 58 110c-24 23 -45 57 -45 95c0 87 65 144 159 144c61 0 115 -18 155 -52l-26 -34c-40 33 -84 47 -130 47c-70 0 -115 -40 -115 -99
c0 -149 302 -88 302 -284c0 -41 -15 -82 -50 -112c21 -27 35 -57 35 -92c0 -87 -59 -154 -179 -154c-62 0 -127 28 -164 64zM223 408c-28 10 -50 20 -79 35c-30 -23 -52 -56 -52 -88c0 -78 78 -95 132 -118c36 -15 75 -30 102 -45c29 22 43 54 43 88c0 72 -61 98 -146 128z
" />
    <glyph glyph-name="degree" unicode="&#xb0;" horiz-adv-x="362" 
d="M304 577c0 -68 -54 -122 -123 -122c-68 0 -122 54 -122 122s55 122 122 122c70 0 123 -54 123 -122zM271 577c0 50 -40 91 -90 91s-89 -41 -89 -91s39 -90 89 -90s90 37 90 90z" />
    <glyph glyph-name="periodcentered" unicode="&#xb7;" horiz-adv-x="174" 
d="M116 231h-59v66h59v-66z" />
    <glyph glyph-name="plusminus" unicode="&#xb1;" horiz-adv-x="466" 
d="M28 0v37h411v-37h-411zM251 270v-188h-36v188h-187v38h187v186h36v-186h187v-38h-187z" />
    <glyph glyph-name="yen" unicode="&#xa5;" horiz-adv-x="480" 
d="M435 305h-388v32h147l-178 359h47c59 -122 117 -244 177 -365c60 120 118 243 176 365h47c-59 -120 -117 -240 -176 -359h148v-32zM47 254h388v-33h-173v-221h-43v221h-172v33z" />
    <glyph glyph-name="Omega" unicode="&#x3a9;" horiz-adv-x="566" 
d="M472 257c0 65 1 130 1 194c0 108 -52 197 -166 205v44c144 -8 213 -111 213 -247v-195c0 -97 -34 -172 -100 -212c0 -1 1 -3 1 -4h115v-42h-191v52c81 26 127 105 127 205zM42 453c0 126 65 237 213 247v-44c-119 -11 -166 -102 -166 -205v-194c0 -87 44 -178 129 -205
v-52h-192v42h118c1 1 1 3 1 4c-73 40 -103 122 -103 212v195z" />
    <glyph glyph-name="guillemotleft" unicode="&#xab;" horiz-adv-x="407" 
d="M359 46h-45l-117 173l118 172h44l-115 -172zM224 46h-46l-116 173l118 172h44l-115 -172z" />
    <glyph glyph-name="guillemotright" unicode="&#xbb;" horiz-adv-x="407" 
d="M108 46h-45l114 173l-114 172h44l118 -172zM243 46h-45l115 173l-115 172h44l118 -172z" />
    <glyph glyph-name="ellipsis" unicode="&#x2026;" horiz-adv-x="542" 
d="M117 0h-56v65h56v-65zM301 0h-56v65h56v-65zM486 0h-56v65h56v-65z" />
    <glyph glyph-name="oe" unicode="&#x153;" horiz-adv-x="836" 
d="M422 379h5c30 83 95 114 155 120v-39c-80 -11 -134 -77 -134 -215c0 -127 40 -213 166 -213c45 0 89 15 123 41l25 -32c-43 -34 -99 -47 -151 -47c-69 0 -150 25 -184 117h-5c-27 -78 -86 -113 -151 -115v38c101 8 132 103 132 218c0 104 -35 197 -133 208v39
c79 -6 129 -54 152 -120zM226 34v-39c-111 5 -181 83 -181 253c0 163 76 246 181 252v-40c-77 -10 -137 -65 -137 -213c0 -147 55 -205 137 -213zM493 240v37h259c-2 112 -51 173 -126 183v39c114 -10 172 -104 172 -224v-35h-305z" />
    <glyph glyph-name="endash" unicode="&#x2013;" horiz-adv-x="493" 
d="M20 243v42h453v-42h-453z" />
    <glyph glyph-name="afii00208" unicode="&#x2015;" horiz-adv-x="817" 
d="M20 243v42h773v-42h-773z" />
    <glyph glyph-name="quotedblleft" unicode="&#x201c;" horiz-adv-x="260" 
d="M97 724h29l-34 -104h16v-66h-56v68zM185 724h28l-33 -104h16v-66h-57v68c16 33 30 68 46 102z" />
    <glyph glyph-name="quotedblright" unicode="&#x201d;" horiz-adv-x="260" 
d="M160 549h-28l34 103h-16v66h56v-67c-15 -34 -30 -68 -46 -102zM73 549h-28l33 103h-16v66h57v-67c-16 -34 -30 -68 -46 -102z" />
    <glyph glyph-name="quoteleft" unicode="&#x2018;" horiz-adv-x="170" 
d="M97 724h29l-34 -104h16v-66h-56v68z" />
    <glyph glyph-name="quoteright" unicode="&#x2019;" horiz-adv-x="170" 
d="M74 550h-29l34 104h-16v66h57v-68c-16 -34 -31 -68 -46 -102z" />
    <glyph glyph-name="divide" unicode="&#xf7;" horiz-adv-x="466" 
d="M274 448c0 -21 -17 -39 -38 -39c-22 0 -39 18 -39 39c0 22 18 37 39 37c20 0 38 -15 38 -37zM441 261h-416v37h416v-37zM237 147c19 0 37 -14 37 -37c0 -21 -17 -38 -38 -38c-22 0 -39 17 -39 38c0 22 19 37 40 37z" />
    <glyph glyph-name="mu" unicode="&#xb5;" 
d="M336 66v-38c-34 -22 -77 -33 -120 -33c-52 0 -88 16 -110 45v-240h-43v695h43v-320c0 -92 34 -140 117 -140c38 0 81 13 113 31zM387 0v495h43v-495h-43z" />
    <glyph glyph-name="mu" unicode="&#x3bc;" 
d="M336 66v-38c-34 -22 -77 -33 -120 -33c-52 0 -88 16 -110 45v-240h-43v695h43v-320c0 -92 34 -140 117 -140c38 0 81 13 113 31zM387 0v495h43v-495h-43z" />
    <glyph glyph-name="pi" unicode="&#x3c0;" horiz-adv-x="522" 
d="M114 495v-495h-43v495h43zM165 457v38h286v-495h-44v457h-242z" />
    <glyph glyph-name="Euro" unicode="&#x20ac;" horiz-adv-x="481" 
d="M20 332h330v-34h-245v-59c0 -109 57 -206 170 -206c74 0 120 34 154 98l40 -21c-41 -78 -104 -117 -194 -117c-145 0 -215 111 -215 251v54h-40v34zM349 382h-329v33h40v42c0 133 74 245 215 245c89 0 156 -41 192 -113l-41 -19c-33 61 -88 91 -151 91
c-116 0 -170 -101 -170 -207v-39h244v-33z" />
    <glyph glyph-name="logicalnot" unicode="&#xac;" horiz-adv-x="466" 
d="M439 299l-1 -232h-36v194h-376v38h413z" />
    <glyph glyph-name="brokenbar" unicode="&#xa6;" horiz-adv-x="174" 
d="M106 305h-34v411h34v-411zM72 249h34v-411h-34v411z" />
    <glyph glyph-name="ae" unicode="&#xe6;" horiz-adv-x="818" 
d="M408 405h7c31 63 87 89 140 94v-39c-80 -11 -131 -77 -131 -212c0 -126 39 -216 167 -216c45 0 88 15 123 41l25 -32c-42 -33 -97 -47 -150 -47c-99 0 -209 42 -209 251v82c0 88 -39 133 -145 133c-46 0 -96 -9 -139 -49l-27 29c43 41 97 61 169 61c80 0 148 -21 170 -96
zM356 68l20 -33c-50 -35 -117 -41 -162 -41c-100 0 -178 46 -178 141c0 80 54 140 160 140h133v-38h-124c-78 0 -126 -33 -126 -100c0 -69 55 -105 141 -105c36 0 89 5 136 36zM476 238v36h253c-3 112 -48 176 -123 186v39c114 -10 168 -104 168 -224v-37h-298z" />
    <glyph glyph-name="eth" unicode="&#xf0;" horiz-adv-x="489" 
d="M271 32c124 13 145 152 145 293c0 99 -26 201 -88 273l-80 -57l-17 24l76 53c-35 35 -80 61 -136 72l10 36c68 -13 120 -43 160 -84l76 54l17 -23l-72 -51c71 -82 96 -196 96 -299c0 -161 -34 -321 -187 -329v38zM345 447v-40c-31 20 -69 26 -97 26
c-101 0 -162 -62 -162 -209c0 -120 49 -181 134 -191v-38c-115 7 -177 82 -177 230c0 158 75 248 202 248c35 0 72 -8 100 -26z" />
    <glyph glyph-name="multiply" unicode="&#xd7;" horiz-adv-x="466" 
d="M232 246c-54 -53 -107 -107 -160 -160c-9 8 -18 17 -26 26l160 160l-157 157l26 26l157 -156c54 52 106 105 159 158c9 -8 18 -17 26 -26l-159 -159l158 -157l-26 -26z" />
    <glyph glyph-name="cedilla" unicode="&#xb8;" horiz-adv-x="414" 
d="M254 14l-22 -67c77 -6 94 -48 94 -76c0 -30 -22 -72 -103 -72c-24 0 -44 5 -64 13l10 27c22 -7 35 -11 54 -11c32 0 66 7 66 44c0 32 -37 48 -81 48l-10 9l27 86c10 0 20 -1 29 -1z" />
    <glyph glyph-name="florin" unicode="&#x192;" horiz-adv-x="480" 
d="M280 451h-45l6 40c18 121 53 210 167 210c24 0 51 -4 73 -11l-12 -41c-22 7 -43 10 -62 10c-60 0 -103 -42 -117 -139c-3 -23 -6 -46 -10 -69zM132 407h253v-38h-116l-37 -271c-16 -117 -58 -191 -160 -191c-23 0 -52 5 -76 12c3 9 4 18 11 40c20 -6 41 -9 59 -9
c69 0 104 40 119 145l39 274h-92v38z" />
    <glyph glyph-name="circumflex" unicode="&#x2c6;" horiz-adv-x="482" 
d="M368 557l-126 97l-127 -98l-21 21l132 124h37l126 -123z" />
    <glyph glyph-name="caron" unicode="&#x2c7;" horiz-adv-x="482" 
d="M242 605l126 96l21 -20l-126 -124h-37l-132 124l21 21z" />
    <glyph glyph-name="breve" unicode="&#x2d8;" horiz-adv-x="498" 
d="M253 601c44 0 78 22 89 73h38c-7 -50 -42 -111 -127 -111s-122 61 -127 111h39c7 -44 46 -73 88 -73z" />
    <glyph glyph-name="tilde" unicode="&#x2dc;" horiz-adv-x="482" 
d="M320 592c-39 0 -102 37 -139 37c-11 0 -23 -3 -37 -17l-22 -22l-22 14c14 42 41 66 75 66c41 0 104 -36 139 -36c12 0 20 4 33 16l22 21l22 -14c-14 -38 -37 -65 -71 -65z" />
    <glyph glyph-name="otilde" unicode="&#xf5;" horiz-adv-x="502" 
d="M228 34v-39c-111 4 -181 81 -181 253c0 164 76 247 181 252v-40c-77 -9 -137 -64 -137 -213c0 -147 55 -205 137 -213zM272 -5v39c102 9 132 103 132 215c0 104 -30 200 -132 211v40c129 -8 177 -119 177 -253c0 -159 -66 -247 -177 -252zM326 592c-39 0 -102 37 -139 37
c-11 0 -23 -3 -37 -17l-22 -22l-22 14c14 42 41 66 75 66c41 0 104 -36 139 -36c12 0 20 4 33 16l22 21l22 -14c-14 -38 -37 -65 -71 -65z" />
    <glyph glyph-name="Ccedilla" unicode="&#xc7;" horiz-adv-x="550" 
d="M278 700v-43c-115 -14 -165 -103 -165 -206v-207c0 -111 59 -208 195 -208c85 0 143 46 175 117l42 -19c-35 -86 -113 -141 -218 -141h-1l-15 -46c77 -6 94 -48 94 -76c0 -30 -22 -72 -103 -72c-24 0 -44 5 -64 13l10 27c22 -7 35 -11 54 -11c32 0 66 7 66 44
c0 32 -37 48 -81 48l-10 9l20 66c-147 12 -210 123 -210 251v208c0 124 69 233 211 246zM322 657v43c94 -5 164 -58 197 -130l-43 -20c-25 57 -82 100 -154 107z" />
    <glyph glyph-name="acute" unicode="&#xb4;" horiz-adv-x="482" 
d="M229 565l-26 16l87 150l46 -25z" />
    <glyph glyph-name="Dieresis" unicode="&#xf6cb;" horiz-adv-x="572" 
d="M185 762v82h45v-82h-45zM338 762v82h44v-82h-44z" />
    <glyph glyph-name="AE" unicode="&#xc6;" horiz-adv-x="911" 
d="M566 653v43h308v-43h-308zM566 340v41h251v-41h-251zM566 0v42h325v-42h-325zM471 647c-137 -216 -274 -431 -410 -647h-55l447 696h69v-696h-47v184h-242l27 42h215v421h-4z" />
    <glyph glyph-name="quotesinglbase" unicode="&#x201a;" horiz-adv-x="167" 
d="M71 -102h-28l33 102h-16v66h57v-65z" />
    <glyph glyph-name="quotedblbase" unicode="&#x201e;" horiz-adv-x="260" 
d="M160 -103h-28c11 35 23 69 34 103h-16v66h56v-66c-18 -42 -31 -72 -46 -103zM73 -103h-28l33 103h-16v66h57v-66z" />
    <glyph glyph-name="daggerdbl" unicode="&#x2021;" horiz-adv-x="447" 
d="M200 156v255h-177v41h177v244h46v-244h178v-41h-178v-255h178v-41h-178v-309h-46v309h-177v41h177z" />
    <glyph glyph-name="guilsinglleft" unicode="&#x2039;" horiz-adv-x="276" 
d="M225 46h-45l-117 173l118 172h44l-114 -172z" />
    <glyph glyph-name="emdash" unicode="&#x2014;" horiz-adv-x="817" 
d="M20 243v42h773v-42h-773z" />
    <glyph glyph-name="guilsinglright" unicode="&#x203a;" horiz-adv-x="276" 
d="M108 46h-45l114 173l-114 172h44l118 -172z" />
    <glyph glyph-name="exclamdown" unicode="&#xa1;" horiz-adv-x="212" 
d="M89 300h34c2 -169 4 -338 5 -507h-44zM79 488h54v-60h-54v60z" />
    <glyph glyph-name="currency" unicode="&#xa4;" horiz-adv-x="514" 
d="M76 160l58 57c-23 33 -35 69 -35 106c0 39 12 75 38 109l-59 58l28 27c20 -19 38 -38 58 -58c34 26 71 38 108 38c38 0 73 -13 106 -36l58 58l28 -28c-20 -19 -39 -39 -58 -58c27 -33 42 -70 42 -109c0 -40 -15 -76 -38 -109c19 -19 39 -38 58 -58c-8 -9 -21 -20 -29 -28
l-57 58c-32 -25 -70 -40 -109 -40c-42 0 -78 14 -112 42l-58 -58zM272 457c-74 0 -133 -58 -133 -133s58 -134 133 -134s134 59 134 133c0 75 -59 134 -134 134z" />
    <glyph glyph-name="paragraph" unicode="&#xb6;" 
d="M359 682h-100v-763h-46v440c-108 0 -185 67 -185 182c0 97 56 183 180 183h259v-42h-62v-763h-46v763z" />
    <glyph glyph-name="questiondown" unicode="&#xbf;" horiz-adv-x="429" 
d="M188 -166c0 -14 1 -28 1 -43c-97 9 -163 75 -163 168c0 74 43 124 85 170c48 53 76 83 76 142v60h46v-62c0 -46 -17 -83 -42 -114c-34 -43 -119 -111 -119 -190c0 -49 24 -118 116 -131zM232 -208v42c74 13 122 88 128 134l45 -9c-23 -99 -93 -156 -173 -167zM185 491h51
v-61h-51v61z" />
    <glyph glyph-name="oslash" unicode="&#xf8;" horiz-adv-x="502" 
d="M228 34v-39c-41 2 -76 13 -104 35c-13 -18 -26 -35 -38 -53l-29 9c15 21 31 42 46 64c-36 41 -56 105 -56 198c0 164 76 247 181 252v-40c-77 -9 -137 -64 -137 -213c0 -74 14 -126 38 -160l231 327c-21 25 -49 42 -88 46v40c49 -3 86 -21 114 -50l39 55
c9 -3 18 -6 27 -8l-48 -69c31 -46 45 -110 45 -181c0 -159 -66 -247 -177 -252v39c102 9 132 103 132 215c0 52 -8 101 -28 140l-227 -324c21 -19 48 -28 79 -31z" />
    <glyph glyph-name="Thorn" unicode="&#xde;" horiz-adv-x="544" 
d="M161 509v43h159c111 0 214 -55 214 -202c0 -92 -64 -196 -204 -196h-169v44h163c117 0 160 79 160 155c0 106 -72 156 -164 156h-159zM116 696l1 -696h-47l1 696h45z" />
    <glyph glyph-name="Eth" unicode="&#xd0;" horiz-adv-x="607" 
d="M168 0v43h126c158 0 209 97 209 231v143c0 178 -82 236 -209 236h-126v43h133c104 0 182 -37 224 -126c23 -48 25 -122 25 -209c0 -100 -1 -174 -24 -227c-42 -100 -126 -134 -239 -134h-119zM124 696v-314h152v-36h-152v-346h-47v346h-64v36h64v314h47z" />
    <glyph glyph-name="Oslash" unicode="&#xd8;" horiz-adv-x="592" 
d="M274 39v-45c-66 5 -116 27 -151 61l-43 -65c-11 4 -22 7 -33 10l54 81c-30 42 -44 96 -44 154v218c0 126 70 239 217 247v-45c-117 -10 -171 -98 -171 -204v-206c0 -44 8 -85 27 -119c104 157 209 313 312 470c-28 34 -69 55 -124 59v45c65 -4 115 -27 151 -63l39 58
l31 -9l-49 -74c30 -43 45 -97 45 -159v-207c0 -146 -83 -247 -217 -252v44c111 7 170 92 170 211v202c0 43 -9 84 -27 117l-310 -471c28 -33 68 -54 123 -58z" />
    <glyph glyph-name="Acute" unicode="&#xf6c9;" horiz-adv-x="572" 
d="M277 738l-19 23l139 110l31 -40z" />
    <glyph glyph-name="Caron" unicode="&#xf6ca;" horiz-adv-x="572" 
d="M283 786l129 83l17 -21l-126 -109h-37l-131 110l18 21z" />
    <glyph glyph-name="Grave" unicode="&#xf6ce;" horiz-adv-x="572" 
d="M329 759l-20 -22l-151 93l33 39z" />
    <glyph glyph-name="Hungarumlaut" unicode="&#xf6cf;" horiz-adv-x="546" 
d="M166 738l-20 23l137 109l34 -39zM304 738l-19 23l137 109l34 -39z" />
    <glyph glyph-name="Macron" unicode="&#xf6d0;" horiz-adv-x="572" 
d="M153 785v41h255v-41h-255z" />
    <glyph glyph-name="cyrBreve" unicode="&#xf6d1;" horiz-adv-x="572" 
d="M285 781c50 0 84 34 89 73h38c-7 -50 -42 -110 -127 -110c-84 0 -122 60 -127 110h38c6 -39 44 -73 89 -73z" />
    <glyph glyph-name="macron" unicode="&#xaf;" horiz-adv-x="474" 
d="M129 593v41h254v-41h-254z" />
    <glyph glyph-name="ring" unicode="&#x2da;" horiz-adv-x="474" 
d="M253 553c-51 0 -92 42 -92 92s41 90 92 90c50 0 92 -40 92 -90s-42 -92 -92 -92zM253 707c-34 0 -62 -29 -62 -62c0 -34 28 -63 62 -63s62 29 62 63c0 33 -28 62 -62 62z" />
    <glyph glyph-name="dotaccent" unicode="&#x2d9;" horiz-adv-x="474" 
d="M222 608v82h46v-82h-46z" />
    <glyph glyph-name="ogonek" unicode="&#x2db;" horiz-adv-x="404" 
d="M202 -191c-61 0 -88 37 -88 81c0 37 21 80 53 112h33v-1c-30 -31 -51 -72 -51 -106c0 -30 18 -53 61 -53c17 0 40 5 59 15l12 -26c-20 -12 -50 -22 -79 -22z" />
    <glyph glyph-name="hungarumlaut" unicode="&#x2dd;" horiz-adv-x="497" 
d="M205 563l-28 12l79 154l48 -19zM306 563l-28 12l79 154l48 -19z" />
    <glyph glyph-name="commaaccent" unicode="&#xf6c3;" horiz-adv-x="583" 
d="M283 -245h-28c9 34 19 68 29 101h-17v66h58v-67z" />
    <glyph glyph-name="Circumflex" unicode="&#xf6c0;" horiz-adv-x="573" 
d="M413 739l-129 84l-130 -85l-18 22l132 109h37l126 -109z" />
    <glyph glyph-name="aacute" unicode="&#xe1;" horiz-adv-x="487" 
d="M328 55v-40c-31 -15 -74 -21 -116 -21c-96 0 -176 46 -176 141c0 80 54 140 160 140h133v-38h-124c-78 0 -126 -33 -126 -100c0 -68 55 -105 139 -105c39 0 75 6 110 23zM235 460c-46 0 -96 -9 -139 -49l-27 29c43 41 97 61 169 61c105 0 179 -32 179 -158v-343h-44v340
c0 75 -34 120 -138 120zM242 565l-26 16l87 150l46 -25z" />
    <glyph glyph-name="atilde" unicode="&#xe3;" horiz-adv-x="487" 
d="M328 55v-40c-31 -15 -74 -21 -116 -21c-96 0 -176 46 -176 141c0 80 54 140 160 140h133v-38h-124c-78 0 -126 -33 -126 -100c0 -68 55 -105 139 -105c39 0 75 6 110 23zM235 460c-46 0 -96 -9 -139 -49l-27 29c43 41 97 61 169 61c105 0 179 -32 179 -158v-343h-44v340
c0 75 -34 120 -138 120zM320 592c-39 0 -102 37 -139 37c-11 0 -23 -3 -37 -17l-22 -22l-22 14c14 42 41 66 75 66c41 0 104 -36 139 -36c12 0 20 4 33 16l22 21l22 -14c-14 -38 -37 -65 -71 -65z" />
    <glyph glyph-name="igrave" unicode="&#xec;" horiz-adv-x="198" 
d="M117 580l-26 -16l-105 141l45 25zM121 0h-44v496h44v-496z" />
    <glyph glyph-name="iacute" unicode="&#xed;" horiz-adv-x="198" 
d="M103 565l-26 16l87 150l46 -25zM121 0h-44v496h44v-496z" />
    <glyph glyph-name="ntilde" unicode="&#xf1;" horiz-adv-x="506" 
d="M107 495v-495h-44v495h44zM151 427v38c34 23 78 35 121 35c104 0 164 -63 164 -173v-327h-43v312c0 95 -43 148 -128 148c-40 0 -82 -13 -114 -33zM315 592c-39 0 -102 37 -139 37c-11 0 -23 -3 -37 -17l-22 -22l-22 14c14 42 41 66 75 66c41 0 104 -36 139 -36
c12 0 20 4 33 16l22 21l22 -14c-14 -38 -37 -65 -71 -65z" />
    <glyph glyph-name="ograve" unicode="&#xf2;" horiz-adv-x="502" 
d="M228 34v-39c-111 4 -181 81 -181 253c0 164 76 247 181 252v-40c-77 -9 -137 -64 -137 -213c0 -147 55 -205 137 -213zM272 -5v39c102 9 132 103 132 215c0 104 -30 200 -132 211v40c129 -8 177 -119 177 -253c0 -159 -66 -247 -177 -252zM281 580l-26 -16l-105 141
l45 25z" />
    <glyph glyph-name="oacute" unicode="&#xf3;" horiz-adv-x="502" 
d="M228 34v-39c-111 4 -181 81 -181 253c0 164 76 247 181 252v-40c-77 -9 -137 -64 -137 -213c0 -147 55 -205 137 -213zM272 -5v39c102 9 132 103 132 215c0 104 -30 200 -132 211v40c129 -8 177 -119 177 -253c0 -159 -66 -247 -177 -252zM254 565l-26 16l87 150l46 -25z
" />
    <glyph glyph-name="uacute" unicode="&#xfa;" 
d="M388 0v495h43v-495h-43zM344 69v-38c-35 -23 -85 -36 -128 -36c-102 0 -153 59 -153 171v329h44v-313c0 -96 32 -147 116 -147c40 0 88 14 121 34zM256 565l-26 16l87 150l46 -25z" />
    <glyph glyph-name="yacute" unicode="&#xfd;" horiz-adv-x="433" 
d="M191 104l-21 -62l-161 453h48zM168 -91l207 586h46l-217 -607c-22 -63 -65 -89 -113 -89h-32v39h30c33 0 62 22 79 71zM217 565l-26 16l87 150l46 -25z" />
    <glyph glyph-name="ydieresis" unicode="&#xff;" horiz-adv-x="433" 
d="M191 104l-21 -62l-161 453h48zM168 -91l207 586h46l-217 -607c-22 -63 -65 -89 -113 -89h-32v39h30c33 0 62 22 79 71zM129 608v82h45v-82h-45zM282 608v82h44v-82h-44z" />
    <glyph glyph-name="aring" unicode="&#xe5;" horiz-adv-x="487" 
d="M328 55v-40c-31 -15 -74 -21 -116 -21c-96 0 -176 46 -176 141c0 80 54 140 160 140h133v-38h-124c-78 0 -126 -33 -126 -100c0 -68 55 -105 139 -105c39 0 75 6 110 23zM235 460c-46 0 -96 -9 -139 -49l-27 29c43 41 97 61 169 61c105 0 179 -32 179 -158v-343h-44v340
c0 75 -34 120 -138 120zM246 553c-51 0 -92 42 -92 92s41 90 92 90c50 0 92 -40 92 -90s-42 -92 -92 -92zM246 707c-34 0 -62 -29 -62 -62c0 -34 28 -63 62 -63s62 29 62 63c0 33 -28 62 -62 62z" />
    <glyph glyph-name="thorn" unicode="&#xfe;" 
d="M106 723v-922h-43v922h43zM157 431v40c30 21 70 30 109 30c136 0 181 -108 181 -253c0 -119 -34 -254 -191 -254c-33 0 -72 6 -99 24v41c27 -17 66 -25 99 -25c127 0 146 120 146 215c0 96 -19 211 -141 211c-34 0 -73 -10 -104 -29z" />
    <glyph glyph-name="OE" unicode="&#x152;" horiz-adv-x="744" 
d="M418 340v41h247v-41h-247zM321 0v696h383v-43h-336v-611h358v-42h-405zM277 44v-44c-161 10 -221 114 -221 240v208c0 126 63 235 221 247v-45c-128 -14 -174 -98 -174 -204v-196c0 -106 46 -195 174 -206z" />
    <glyph glyph-name="amacron" unicode="&#x101;" horiz-adv-x="487" 
d="M328 55v-40c-31 -15 -74 -21 -116 -21c-96 0 -176 46 -176 141c0 80 54 140 160 140h133v-38h-124c-78 0 -126 -33 -126 -100c0 -68 55 -105 139 -105c39 0 75 6 110 23zM235 460c-46 0 -96 -9 -139 -49l-27 29c43 41 97 61 169 61c105 0 179 -32 179 -158v-343h-44v340
c0 75 -34 120 -138 120zM125 593v41h254v-41h-254z" />
    <glyph glyph-name="abreve" unicode="&#x103;" horiz-adv-x="487" 
d="M328 55v-40c-31 -15 -74 -21 -116 -21c-96 0 -176 46 -176 141c0 80 54 140 160 140h133v-38h-124c-78 0 -126 -33 -126 -100c0 -68 55 -105 139 -105c39 0 75 6 110 23zM235 460c-46 0 -96 -9 -139 -49l-27 29c43 41 97 61 169 61c105 0 179 -32 179 -158v-343h-44v340
c0 75 -34 120 -138 120zM255 601c44 0 78 22 89 73h38c-7 -50 -42 -111 -127 -111s-122 61 -127 111h39c7 -44 46 -73 88 -73z" />
    <glyph glyph-name="Aogonek" unicode="&#x104;" horiz-adv-x="587" 
d="M63 0h-48c85 232 172 464 257 696h40c55 -148 110 -294 164 -441h-47l-137 375h-2zM559 -191c-61 0 -88 37 -88 81c0 37 20 78 51 110l-63 170h-287l15 41h305c26 -71 53 -141 79 -211h-15c-30 -31 -50 -71 -50 -105c0 -30 18 -53 61 -53c17 0 40 5 59 15l12 -26
c-20 -12 -50 -22 -79 -22z" />
    <glyph glyph-name="aogonek" unicode="&#x105;" horiz-adv-x="487" 
d="M415 -191c-61 0 -88 37 -88 81c0 37 20 78 51 110h-5v340c0 75 -34 120 -138 120c-46 0 -96 -9 -139 -49l-27 29c43 41 97 61 169 61c105 0 179 -32 179 -158v-343h-5c-30 -31 -50 -71 -50 -105c0 -30 18 -53 61 -53c17 0 40 5 59 15l12 -26c-20 -12 -50 -22 -79 -22z
M328 55v-40c-31 -15 -74 -21 -116 -21c-96 0 -176 46 -176 141c0 80 54 140 160 140h133v-38h-124c-78 0 -126 -33 -126 -100c0 -68 55 -105 139 -105c39 0 75 6 110 23z" />
    <glyph glyph-name="cacute" unicode="&#x107;" horiz-adv-x="429" 
d="M92 275h-44c12 163 109 226 212 226c60 0 106 -21 144 -54l-27 -32c-27 25 -69 47 -112 47c-105 0 -164 -68 -173 -187zM47 231h44c3 -127 51 -198 175 -198c52 0 95 22 121 46l25 -30c-38 -34 -86 -56 -150 -56c-124 0 -212 62 -215 238zM234 565l-26 16l87 150l46 -25z
" />
    <glyph glyph-name="ccircumflex" unicode="&#x109;" horiz-adv-x="429" 
d="M92 275h-44c12 163 109 226 212 226c60 0 106 -21 144 -54l-27 -32c-27 25 -69 47 -112 47c-105 0 -164 -68 -173 -187zM47 231h44c3 -127 51 -198 175 -198c52 0 95 22 121 46l25 -30c-38 -34 -86 -56 -150 -56c-124 0 -212 62 -215 238zM378 557l-126 97l-127 -98
l-21 21l132 124h37l126 -123z" />
    <glyph glyph-name="cdotaccent" unicode="&#x10b;" horiz-adv-x="429" 
d="M92 275h-44c12 163 109 226 212 226c60 0 106 -21 144 -54l-27 -32c-27 25 -69 47 -112 47c-105 0 -164 -68 -173 -187zM47 231h44c3 -127 51 -198 175 -198c52 0 95 22 121 46l25 -30c-38 -34 -86 -56 -150 -56c-124 0 -212 62 -215 238zM234 591v82h46v-82h-46z" />
    <glyph glyph-name="ccaron" unicode="&#x10d;" horiz-adv-x="429" 
d="M92 275h-44c12 163 109 226 212 226c60 0 106 -21 144 -54l-27 -32c-27 25 -69 47 -112 47c-105 0 -164 -68 -173 -187zM47 231h44c3 -127 51 -198 175 -198c52 0 95 22 121 46l25 -30c-38 -34 -86 -56 -150 -56c-124 0 -212 62 -215 238zM258 605l126 96l21 -20
l-126 -124h-37l-132 124l21 21z" />
    <glyph glyph-name="dcaron" unicode="&#x10f;" horiz-adv-x="528" 
d="M381 0v722h43v-722h-43zM337 60v-41c-28 -18 -72 -25 -109 -25c-136 0 -181 101 -181 245c0 121 34 262 191 262c33 0 71 -7 99 -25v-41c-27 17 -64 26 -99 26c-127 0 -146 -128 -146 -223c0 -96 19 -204 141 -204c39 0 72 7 104 26zM507 555h-28c9 34 19 68 29 101h-17
v66h58v-67z" />
    <glyph glyph-name="Dcroat" unicode="&#x110;" horiz-adv-x="607" 
d="M168 0v43h126c158 0 209 97 209 231v143c0 178 -82 236 -209 236h-126v43h133c104 0 182 -37 224 -126c23 -48 25 -122 25 -209c0 -100 -1 -174 -24 -227c-42 -100 -126 -134 -239 -134h-119zM124 696v-307h152v-36h-152v-353h-47v353h-64v36h64v307h47z" />
    <glyph glyph-name="dcroat" unicode="&#x111;" horiz-adv-x="486" 
d="M222 580v32h158v110h43v-110h53v-32h-53v-580h-43v580h-158zM336 60v-41c-28 -18 -72 -25 -109 -25c-136 0 -181 101 -181 245c0 121 34 262 191 262c33 0 71 -7 99 -25v-41c-27 17 -64 26 -99 26c-127 0 -146 -128 -146 -223c0 -96 19 -204 141 -204c39 0 72 7 104 26z
" />
    <glyph glyph-name="emacron" unicode="&#x113;" horiz-adv-x="484" 
d="M256 -6c-100 0 -210 42 -210 251c0 184 94 250 179 255v-40c-82 -9 -134 -77 -134 -212c0 -126 38 -216 166 -216c45 0 89 15 123 41l25 -32c-42 -33 -97 -47 -149 -47zM136 240v37h259c-2 112 -51 173 -126 182v40c108 -6 171 -104 171 -224v-35h-304zM125 593v41h254
v-41h-254z" />
    <glyph glyph-name="ebreve" unicode="&#x115;" horiz-adv-x="484" 
d="M256 -6c-100 0 -210 42 -210 251c0 184 94 250 179 255v-40c-82 -9 -134 -77 -134 -212c0 -126 38 -216 166 -216c45 0 89 15 123 41l25 -32c-42 -33 -97 -47 -149 -47zM136 240v37h259c-2 112 -51 173 -126 182v40c108 -6 171 -104 171 -224v-35h-304zM248 601
c44 0 78 22 89 73h38c-7 -50 -42 -111 -127 -111s-122 61 -127 111h39c7 -44 46 -73 88 -73z" />
    <glyph glyph-name="edotaccent" unicode="&#x117;" horiz-adv-x="484" 
d="M256 -6c-100 0 -210 42 -210 251c0 184 94 250 179 255v-40c-82 -9 -134 -77 -134 -212c0 -126 38 -216 166 -216c45 0 89 15 123 41l25 -32c-42 -33 -97 -47 -149 -47zM136 240v37h259c-2 112 -51 173 -126 182v40c108 -6 171 -104 171 -224v-35h-304zM228 594v82h46
v-82h-46z" />
    <glyph glyph-name="Eogonek" unicode="&#x118;" horiz-adv-x="529" 
d="M123 696v-696h-46v696h46zM167 0v43h346v-43h-16c-30 -31 -50 -71 -50 -105c0 -30 18 -53 61 -53c17 0 40 5 59 15l12 -26c-20 -12 -50 -22 -79 -22c-61 0 -88 37 -88 81c0 37 20 78 51 110h-296zM167 653v43h332v-43h-332zM167 341v42h265v-42h-265z" />
    <glyph glyph-name="eogonek" unicode="&#x119;" horiz-adv-x="484" 
d="M390 -162c-61 0 -88 37 -88 81c0 28 11 59 30 85c-25 -6 -51 -10 -76 -10c-100 0 -210 42 -210 251c0 184 94 250 179 255v-40c-82 -9 -134 -77 -134 -212c0 -126 38 -216 166 -216c45 0 89 15 123 41l25 -32c-7 -5 -13 -10 -20 -14c-28 -30 -48 -70 -48 -103
c0 -30 18 -53 61 -53c17 0 40 5 59 15l12 -26c-20 -12 -50 -22 -79 -22zM136 240v37h259c-2 112 -51 173 -126 182v40c108 -6 171 -104 171 -224v-35h-304z" />
    <glyph glyph-name="ecaron" unicode="&#x11b;" horiz-adv-x="484" 
d="M256 -6c-100 0 -210 42 -210 251c0 184 94 250 179 255v-40c-82 -9 -134 -77 -134 -212c0 -126 38 -216 166 -216c45 0 89 15 123 41l25 -32c-42 -33 -97 -47 -149 -47zM136 240v37h259c-2 112 -51 173 -126 182v40c108 -6 171 -104 171 -224v-35h-304zM251 605l126 96
l21 -20l-126 -124h-37l-132 124l21 21z" />
    <glyph glyph-name="gcircumflex" unicode="&#x11d;" horiz-adv-x="493" 
d="M379 -3v499h43v-492c0 -149 -93 -208 -204 -208c-46 0 -101 15 -140 47c9 11 17 23 25 34c29 -22 71 -40 112 -40c105 0 164 61 164 160zM336 472v-40c-32 19 -64 29 -99 29c-122 0 -146 -122 -146 -218c0 -98 19 -208 146 -208c36 0 71 8 99 25v-40
c-28 -18 -67 -24 -99 -24c-157 0 -191 115 -191 245c0 143 50 261 186 261c37 0 73 -10 104 -30zM367 557l-126 97l-127 -98l-21 21l132 124h37l126 -123z" />
    <glyph glyph-name="gbreve" unicode="&#x11f;" horiz-adv-x="493" 
d="M379 -3v499h43v-492c0 -149 -93 -208 -204 -208c-46 0 -101 15 -140 47c9 11 17 23 25 34c29 -22 71 -40 112 -40c105 0 164 61 164 160zM336 472v-40c-32 19 -64 29 -99 29c-122 0 -146 -122 -146 -218c0 -98 19 -208 146 -208c36 0 71 8 99 25v-40
c-28 -18 -67 -24 -99 -24c-157 0 -191 115 -191 245c0 143 50 261 186 261c37 0 73 -10 104 -30zM252 609c44 0 78 22 89 73h38c-7 -50 -42 -111 -127 -111s-122 61 -127 111h39c7 -44 46 -73 88 -73z" />
    <glyph glyph-name="gdotaccent" unicode="&#x121;" horiz-adv-x="493" 
d="M379 -3v499h43v-492c0 -149 -93 -208 -204 -208c-46 0 -101 15 -140 47c9 11 17 23 25 34c29 -22 71 -40 112 -40c105 0 164 61 164 160zM336 472v-40c-32 19 -64 29 -99 29c-122 0 -146 -122 -146 -218c0 -98 19 -208 146 -208c36 0 71 8 99 25v-40
c-28 -18 -67 -24 -99 -24c-157 0 -191 115 -191 245c0 143 50 261 186 261c37 0 73 -10 104 -30zM230 608v82h46v-82h-46z" />
    <glyph glyph-name="gcommaaccent" unicode="&#x123;" horiz-adv-x="493" 
d="M252 741h28l-28 -101h16v-66h-58v67zM379 -3v499h43v-492c0 -149 -93 -208 -204 -208c-46 0 -101 15 -140 47c9 11 17 23 25 34c29 -22 71 -40 112 -40c105 0 164 61 164 160zM336 472v-40c-32 19 -64 29 -99 29c-122 0 -146 -122 -146 -218c0 -98 19 -208 146 -208
c36 0 71 8 99 25v-40c-28 -18 -67 -24 -99 -24c-157 0 -191 115 -191 245c0 143 50 261 186 261c37 0 73 -10 104 -30z" />
    <glyph glyph-name="hcircumflex" unicode="&#x125;" horiz-adv-x="511" 
d="M107 723v-723h-44v723h44zM151 426v39c34 23 78 35 121 35c104 0 164 -63 164 -173v-327h-43v312c0 95 -43 147 -128 147c-40 0 -82 -13 -114 -33zM217 739l-129 84l-130 -85l-18 22l132 109h37l126 -109z" />
    <glyph glyph-name="Hbar" unicode="&#x126;" horiz-adv-x="623" 
d="M167 339v41h332v181h-376v-561h-47v561h-54v34h54v101h47v-101h376v101h47v-101h46v-34h-46v-561h-47v339h-332z" />
    <glyph glyph-name="hbar" unicode="&#x127;" horiz-adv-x="515" 
d="M111 723v-99h224v-37h-224v-587h-43v587h-60v37h60v99h43zM162 389v39c34 23 78 35 121 35c104 0 164 -63 164 -173v-290h-43v275c0 95 -43 147 -128 147c-40 0 -82 -13 -114 -33z" />
    <glyph glyph-name="itilde" unicode="&#x129;" horiz-adv-x="208" 
d="M180 592c-39 0 -102 37 -139 37c-11 0 -23 -3 -37 -17l-22 -22l-22 14c14 42 41 66 75 66c41 0 104 -36 139 -36c12 0 20 4 33 16l22 21l22 -14c-14 -38 -37 -65 -71 -65zM125 0h-44v496h44v-496z" />
    <glyph glyph-name="imacron" unicode="&#x12b;" horiz-adv-x="198" 
d="M-28 593v41h254v-41h-254zM121 0h-44v496h44v-496z" />
    <glyph glyph-name="ibreve" unicode="&#x12d;" horiz-adv-x="198" 
d="M100 607c44 0 78 22 89 73h38c-7 -50 -42 -111 -127 -111s-122 61 -127 111h39c7 -44 46 -73 88 -73zM121 0h-44v496h44v-496z" />
    <glyph glyph-name="Iogonek" unicode="&#x12e;" horiz-adv-x="220" 
d="M86 0v696h47v-696h-12c-30 -31 -50 -71 -50 -105c0 -30 18 -53 61 -53c17 0 40 5 59 15l12 -26c-20 -12 -50 -22 -79 -22c-61 0 -88 37 -88 81c0 37 20 78 51 110h-1z" />
    <glyph glyph-name="iogonek" unicode="&#x12f;" horiz-adv-x="197" 
d="M113 -191c-61 0 -88 37 -88 81c0 37 20 78 51 110v496h43v-496h-9c-30 -31 -50 -71 -50 -105c0 -30 18 -53 61 -53c17 0 40 5 59 15l12 -26c-20 -12 -50 -22 -79 -22zM76 622v80h43v-80h-43z" />
    <glyph glyph-name="dotlessi" unicode="&#x131;" horiz-adv-x="198" 
d="M121 0h-44v496h44v-496z" />
    <glyph glyph-name="IJ" unicode="&#x132;" horiz-adv-x="617" 
d="M86 0v696h47v-696h-47zM323 -6c-55 0 -121 20 -158 54l28 34c37 -32 92 -44 130 -44c91 0 162 43 162 175v483h46v-496c0 -146 -98 -206 -208 -206z" />
    <glyph glyph-name="ij" unicode="&#x133;" horiz-adv-x="366" 
d="M76 622v80h43v-80h-43zM119 0h-43v496h43v-496zM171 -203h-25v40h20c56 3 78 33 78 92v566h44v-571c0 -73 -35 -127 -117 -127zM244 622v80h44v-80h-44z" />
    <glyph glyph-name="jcircumflex" unicode="&#x135;" horiz-adv-x="240" 
d="M24 -203h-25v40h21c56 3 77 33 77 92v566h44v-571c0 -73 -34 -127 -117 -127zM246 557l-126 97l-127 -98l-21 21l132 124h37l126 -123z" />
    <glyph glyph-name="kcommaaccent" unicode="&#x137;" horiz-adv-x="476" 
d="M423 495l-316 -353v-142h-44v723h44v-523l262 295h54zM260 250l29 32l177 -282h-51zM237 -232h-28c9 34 19 68 29 101h-17v66h58v-67z" />
    <glyph glyph-name="kgreenlandic" unicode="&#x138;" horiz-adv-x="476" 
d="M423 495l-316 -353v-142h-44v495h44v-295l262 295h54zM264 244l29 32l173 -276h-51z" />
    <glyph glyph-name="lacute" unicode="&#x13a;" horiz-adv-x="218" 
d="M184 0c-72 0 -111 26 -111 102v620h44v-611c0 -50 18 -70 70 -70h14v-41h-17zM94 753l-19 23l139 110l31 -40z" />
    <glyph glyph-name="lcommaaccent" unicode="&#x13c;" horiz-adv-x="218" 
d="M184 0c-72 0 -111 26 -111 102v620h44v-611c0 -50 18 -70 70 -70h14v-41h-17zM106 -245h-28c9 34 19 68 29 101h-17v66h58v-67z" />
    <glyph glyph-name="lcaron" unicode="&#x13e;" horiz-adv-x="247" 
d="M186 0c-72 0 -111 26 -111 102v620h44v-611c0 -50 18 -70 70 -70h14v-41h-17zM209 555h-28c9 34 19 68 29 101h-17v66h58v-67z" />
    <glyph glyph-name="ldot" unicode="&#x140;" horiz-adv-x="244" 
d="M180 0c-72 0 -111 26 -111 102v620h44v-611c0 -50 18 -70 70 -70h14v-41h-17zM193 356v82h46v-82h-46z" />
    <glyph glyph-name="Lslash" unicode="&#x141;" horiz-adv-x="514" 
d="M123 696v-372l157 91l19 -33c-59 -34 -117 -68 -176 -101l1 -281h-47v254l-61 -35c-7 11 -13 21 -18 32c26 15 52 31 79 46v399h46zM168 0v43h331v-43h-331z" />
    <glyph glyph-name="lslash" unicode="&#x142;" horiz-adv-x="218" 
d="M13 270c-7 11 -13 21 -18 32c26 15 51 30 78 44v376h44v-352l74 42c6 -11 12 -22 19 -33l-93 -52v-216c0 -50 18 -70 70 -70h14v-41h-17c-72 0 -111 26 -111 102v201z" />
    <glyph glyph-name="nacute" unicode="&#x144;" horiz-adv-x="506" 
d="M107 495v-495h-44v495h44zM151 427v38c34 23 78 35 121 35c104 0 164 -63 164 -173v-327h-43v312c0 95 -43 148 -128 148c-40 0 -82 -13 -114 -33zM238 565l-26 16l87 150l46 -25z" />
    <glyph glyph-name="ncommaaccent" unicode="&#x146;" horiz-adv-x="506" 
d="M107 495v-495h-44v495h44zM151 427v38c34 23 78 35 121 35c104 0 164 -63 164 -173v-327h-43v312c0 95 -43 148 -128 148c-40 0 -82 -13 -114 -33zM242 -232h-28c9 34 19 68 29 101h-17v66h58v-67z" />
    <glyph glyph-name="ncaron" unicode="&#x148;" horiz-adv-x="506" 
d="M107 495v-495h-44v495h44zM151 427v38c34 23 78 35 121 35c104 0 164 -63 164 -173v-327h-43v312c0 95 -43 148 -128 148c-40 0 -82 -13 -114 -33zM242 605l126 96l21 -20l-126 -124h-37l-132 124l21 21z" />
    <glyph glyph-name="napostrophe" unicode="&#x149;" horiz-adv-x="517" 
d="M117 495v-495h-44v495h44zM161 427v38c34 23 78 35 121 35c104 0 164 -63 164 -173v-327h-43v312c0 95 -43 148 -128 148c-40 0 -82 -13 -114 -33zM14 501h-28c9 34 19 68 29 101h-17v66h58v-67z" />
    <glyph glyph-name="Eng" unicode="&#x14a;" horiz-adv-x="658" 
d="M76 687v9h48l454 -686v-88c0 -91 -51 -127 -118 -127c-16 0 -38 2 -58 9v41c18 -5 35 -7 51 -7c51 0 79 24 79 99v63c-151 229 -304 458 -456 687zM580 99c-15 23 -30 46 -46 69v528h46v-597zM76 595l47 -72v-523h-47v595z" />
    <glyph glyph-name="eng" unicode="&#x14b;" horiz-adv-x="506" 
d="M443 326v-360c0 -91 -52 -127 -118 -127c-16 0 -36 2 -57 9v41c18 -5 35 -7 51 -7c51 0 80 24 80 99v330c0 96 -42 148 -128 148c-39 0 -82 -14 -114 -32v38c34 22 78 35 121 35c105 0 165 -64 165 -174zM106 495v-495h-43v495h43z" />
    <glyph glyph-name="omacron" unicode="&#x14d;" horiz-adv-x="502" 
d="M228 34v-39c-111 4 -181 81 -181 253c0 164 76 247 181 252v-40c-77 -9 -137 -64 -137 -213c0 -147 55 -205 137 -213zM272 -5v39c102 9 132 103 132 215c0 104 -30 200 -132 211v40c129 -8 177 -119 177 -253c0 -159 -66 -247 -177 -252zM129 593v41h254v-41h-254z" />
    <glyph glyph-name="obreve" unicode="&#x14f;" horiz-adv-x="502" 
d="M228 34v-39c-111 4 -181 81 -181 253c0 164 76 247 181 252v-40c-77 -9 -137 -64 -137 -213c0 -147 55 -205 137 -213zM272 -5v39c102 9 132 103 132 215c0 104 -30 200 -132 211v40c129 -8 177 -119 177 -253c0 -159 -66 -247 -177 -252zM250 601c44 0 78 22 89 73h38
c-7 -50 -42 -111 -127 -111s-122 61 -127 111h39c7 -44 46 -73 88 -73z" />
    <glyph glyph-name="ohungarumlaut" unicode="&#x151;" horiz-adv-x="502" 
d="M228 34v-39c-111 4 -181 81 -181 253c0 164 76 247 181 252v-40c-77 -9 -137 -64 -137 -213c0 -147 55 -205 137 -213zM272 -5v39c102 9 132 103 132 215c0 104 -30 200 -132 211v40c129 -8 177 -119 177 -253c0 -159 -66 -247 -177 -252zM210 563l-28 12l79 154l48 -19z
M311 563l-28 12l79 154l48 -19z" />
    <glyph glyph-name="racute" unicode="&#x155;" horiz-adv-x="345" 
d="M113 495v-495h-43v495h43zM345 488l-19 -41c-18 8 -41 11 -58 11c-33 0 -72 -11 -112 -50v46c38 38 78 47 118 47c20 0 52 -6 71 -13zM163 565l-26 16l87 150l46 -25z" />
    <glyph glyph-name="rcommaaccent" unicode="&#x157;" horiz-adv-x="345" 
d="M113 495v-495h-43v495h43zM345 488l-19 -41c-18 8 -41 11 -58 11c-33 0 -72 -11 -112 -50v46c38 38 78 47 118 47c20 0 52 -6 71 -13zM77 -232h-28c9 34 19 68 29 101h-17v66h58v-67z" />
    <glyph glyph-name="rcaron" unicode="&#x159;" horiz-adv-x="345" 
d="M113 495v-495h-43v495h43zM345 488l-19 -41c-18 8 -41 11 -58 11c-33 0 -72 -11 -112 -50v46c38 38 78 47 118 47c20 0 52 -6 71 -13zM101 605l126 96l21 -20l-126 -124h-37l-132 124l21 21z" />
    <glyph glyph-name="sacute" unicode="&#x15b;" horiz-adv-x="438" 
d="M245 463v39c56 -3 104 -18 143 -44l-21 -34c-34 22 -78 36 -122 39zM201 33v-40c-66 2 -124 21 -173 61l24 34c42 -34 92 -51 149 -55zM245 -6v39c57 6 115 32 115 102c0 62 -56 87 -136 102c-101 20 -169 45 -169 130c0 75 56 129 146 135v-40c-60 -3 -104 -37 -104 -92
c0 -53 36 -74 137 -94c94 -19 170 -51 170 -141c0 -73 -55 -135 -159 -141zM208 565l-26 16l87 150l46 -25z" />
    <glyph glyph-name="scircumflex" unicode="&#x15d;" horiz-adv-x="438" 
d="M245 463v39c56 -3 104 -18 143 -44l-21 -34c-34 22 -78 36 -122 39zM201 33v-40c-66 2 -124 21 -173 61l24 34c42 -34 92 -51 149 -55zM245 -6v39c57 6 115 32 115 102c0 62 -56 87 -136 102c-101 20 -169 45 -169 130c0 75 56 129 146 135v-40c-60 -3 -104 -37 -104 -92
c0 -53 36 -74 137 -94c94 -19 170 -51 170 -141c0 -73 -55 -135 -159 -141zM346 557l-126 97l-127 -98l-21 21l132 124h37l126 -123z" />
    <glyph glyph-name="Scedilla" unicode="&#x15e;" horiz-adv-x="538" 
d="M291 -6v42c96 5 167 57 167 144c0 211 -404 112 -404 339c0 105 77 174 193 182v-44c-79 -6 -146 -45 -146 -135c0 -185 405 -97 405 -338c0 -109 -83 -184 -215 -190zM246 37v-42l-22 -48c77 -6 92 -48 92 -76c0 -30 -22 -72 -97 -72c-25 0 -48 4 -70 13l10 27
c22 -7 35 -11 54 -11c28 0 66 9 66 44c0 32 -39 48 -84 48l-9 9l31 68c-72 6 -140 29 -195 71l27 38c58 -44 125 -66 197 -69zM291 658v44c71 -2 133 -22 183 -53l-23 -39c-47 27 -99 44 -160 48z" />
    <glyph glyph-name="scedilla" unicode="&#x15f;" horiz-adv-x="438" 
d="M244 -5v38c58 6 116 31 116 102c0 61 -56 86 -136 102c-102 20 -170 45 -170 129c0 76 56 130 146 136v-40c-59 -3 -103 -37 -103 -92c0 -53 35 -75 136 -95c95 -19 170 -51 170 -141c0 -72 -55 -134 -159 -139zM200 33v-40l-24 -46c77 -6 94 -48 94 -76
c0 -30 -23 -72 -98 -72c-25 0 -48 4 -70 13c4 9 7 19 11 27c24 -9 40 -11 59 -11c28 0 60 11 60 44c0 31 -41 48 -83 48l-10 9c11 23 22 44 32 66c-54 5 -102 25 -144 58l24 35c42 -34 92 -52 149 -55zM244 462v40c56 -3 104 -18 143 -45l-21 -34c-34 22 -77 36 -122 39z
" />
    <glyph glyph-name="tcommaaccent" unicode="&#x163;" horiz-adv-x="282" 
d="M89 416h43v-289c0 -62 16 -88 79 -88h56v-39h-71c-74 0 -107 38 -107 113v303zM13 458v38h76v124h43v-124h130v-38h-249zM116 -245h-28c9 34 19 68 29 101h-17v66h58v-67z" />
    <glyph glyph-name="tcaron" unicode="&#x165;" horiz-adv-x="298" 
d="M93 416h43v-289c0 -62 16 -88 79 -88h56v-39h-71c-74 0 -107 38 -107 113v303zM17 458v38h76v124h43v-124h130v-38h-249zM263 564h-28c9 34 19 68 29 101h-17v66h58v-67z" />
    <glyph glyph-name="Tbar" unicode="&#x166;" horiz-adv-x="504" 
d="M271 696v-307h153v-36h-153v-353h-46v353h-156v36h156v266h-207v41h253zM315 655v41h171v-41h-171z" />
    <glyph glyph-name="tbar" unicode="&#x167;" horiz-adv-x="282" 
d="M89 416h43v-116h125v-37h-125v-136c0 -62 16 -88 79 -88h56v-39h-71c-74 0 -107 38 -107 113v150h-76v37h76v116zM13 458v38h76v124h43v-124h130v-38h-249z" />
    <glyph glyph-name="utilde" unicode="&#x169;" 
d="M388 0v495h43v-495h-43zM344 69v-38c-35 -23 -85 -36 -128 -36c-102 0 -153 59 -153 171v329h44v-313c0 -96 32 -147 116 -147c40 0 88 14 121 34zM326 592c-39 0 -102 37 -139 37c-11 0 -23 -3 -37 -17l-22 -22l-22 14c14 42 41 66 75 66c41 0 104 -36 139 -36
c12 0 20 4 33 16l22 21l22 -14c-14 -38 -37 -65 -71 -65z" />
    <glyph glyph-name="umacron" unicode="&#x16b;" 
d="M388 0v495h43v-495h-43zM344 69v-38c-35 -23 -85 -36 -128 -36c-102 0 -153 59 -153 171v329h44v-313c0 -96 32 -147 116 -147c40 0 88 14 121 34zM127 593v41h254v-41h-254z" />
    <glyph glyph-name="ubreve" unicode="&#x16d;" 
d="M388 0v495h43v-495h-43zM344 69v-38c-35 -23 -85 -36 -128 -36c-102 0 -153 59 -153 171v329h44v-313c0 -96 32 -147 116 -147c40 0 88 14 121 34zM259 601c44 0 78 22 89 73h38c-7 -50 -42 -111 -127 -111s-122 61 -127 111h39c7 -44 46 -73 88 -73z" />
    <glyph glyph-name="uring" unicode="&#x16f;" 
d="M388 0v495h43v-495h-43zM344 69v-38c-35 -23 -85 -36 -128 -36c-102 0 -153 59 -153 171v329h44v-313c0 -96 32 -147 116 -147c40 0 88 14 121 34zM255 553c-51 0 -92 42 -92 92s41 90 92 90c50 0 92 -40 92 -90s-42 -92 -92 -92zM255 707c-34 0 -62 -29 -62 -62
c0 -34 28 -63 62 -63s62 29 62 63c0 33 -28 62 -62 62z" />
    <glyph glyph-name="uhungarumlaut" unicode="&#x171;" 
d="M388 0v495h43v-495h-43zM344 69v-38c-35 -23 -85 -36 -128 -36c-102 0 -153 59 -153 171v329h44v-313c0 -96 32 -147 116 -147c40 0 88 14 121 34zM203 563l-28 12l79 154l48 -19zM304 563l-28 12l79 154l48 -19z" />
    <glyph glyph-name="Uogonek" unicode="&#x172;" horiz-adv-x="620" 
d="M286 39v-44c-30 -31 -51 -71 -51 -104c0 -30 18 -54 61 -54c17 0 40 6 59 15l12 -26c-20 -12 -50 -21 -79 -21c-61 0 -88 36 -88 81c0 36 19 80 53 113c-122 22 -181 108 -181 240v457h46v-447c0 -118 50 -196 168 -210zM337 -4v43c107 8 165 85 165 203v454h47v-464
c0 -134 -78 -233 -212 -236z" />
    <glyph glyph-name="uogonek" unicode="&#x173;" 
d="M423 -191c-61 0 -88 37 -88 81c0 37 21 80 53 112v493h43v-495h-11c-30 -31 -50 -71 -50 -105c0 -30 18 -53 61 -53c17 0 40 5 59 15l12 -26c-20 -12 -50 -22 -79 -22zM344 69v-38c-35 -23 -85 -36 -128 -36c-102 0 -153 59 -153 171v329h44v-313c0 -96 32 -147 116 -147
c40 0 88 14 121 34z" />
    <glyph glyph-name="wcircumflex" unicode="&#x175;" horiz-adv-x="689" 
d="M236 61l-20 64c37 123 73 246 109 370h41l155 -495h-41l-135 426h-2zM55 495l156 -495h-41l-159 495h44zM547 58l-19 64l106 373h42zM471 557l-126 97l-127 -98l-21 21l132 124h37l126 -123z" />
    <glyph glyph-name="ycircumflex" unicode="&#x177;" horiz-adv-x="433" 
d="M191 104l-21 -62l-161 453h48zM168 -91l207 586h46l-217 -607c-22 -63 -65 -89 -113 -89h-32v39h30c33 0 62 22 79 71zM349 557l-126 97l-127 -98l-21 21l132 124h37l126 -123z" />
    <glyph glyph-name="zacute" unicode="&#x17a;" horiz-adv-x="402" 
d="M371 457l-332 -457h-20v40l302 417h-282v38h332v-38zM94 0l30 40h255v-40h-285zM198 565l-26 16l87 150l46 -25z" />
    <glyph glyph-name="zdotaccent" unicode="&#x17c;" horiz-adv-x="402" 
d="M371 457l-332 -457h-20v40l302 417h-282v38h332v-38zM94 0l30 40h255v-40h-285zM178 608v82h46v-82h-46z" />
    <glyph glyph-name="AEacute" unicode="&#x1fc;" horiz-adv-x="911" 
d="M566 653v43h308v-43h-308zM566 340v41h251v-41h-251zM566 0v42h325v-42h-325zM471 647c-137 -216 -274 -431 -410 -647h-55l447 696h69v-696h-47v184h-242l27 42h215v421h-4zM581 744l-19 23l139 110l31 -40z" />
    <glyph glyph-name="aeacute" unicode="&#x1fd;" horiz-adv-x="818" 
d="M408 405h7c31 63 87 89 140 94v-39c-80 -11 -131 -77 -131 -212c0 -126 39 -216 167 -216c45 0 88 15 123 41l25 -32c-42 -33 -97 -47 -150 -47c-99 0 -209 42 -209 251v82c0 88 -39 133 -145 133c-46 0 -96 -9 -139 -49l-27 29c43 41 97 61 169 61c80 0 148 -21 170 -96
zM356 68l20 -33c-50 -35 -117 -41 -162 -41c-100 0 -178 46 -178 141c0 80 54 140 160 140h133v-38h-124c-78 0 -126 -33 -126 -100c0 -69 55 -105 141 -105c36 0 89 5 136 36zM476 238v36h253c-3 112 -48 176 -123 186v39c114 -10 168 -104 168 -224v-37h-298zM435 565
l-26 16l87 150l46 -25z" />
    <glyph glyph-name="Oslashacute" unicode="&#x1fe;" horiz-adv-x="592" 
d="M274 39v-45c-71 5 -124 30 -159 70l-44 -67c-9 5 -18 11 -27 17l51 77c-26 40 -38 90 -38 144v218c0 126 70 239 217 247v-45c-117 -10 -171 -98 -171 -204v-206c0 -39 7 -77 22 -108l309 467c-27 29 -66 48 -116 51v45c60 -4 108 -23 143 -55l36 54l27 -17l-41 -61
c35 -44 52 -102 52 -168v-207c0 -146 -83 -247 -217 -252v44c111 7 170 92 170 211v202c0 48 -11 92 -33 127l-312 -471c28 -38 71 -64 131 -68zM290 742l-19 23l139 110l31 -40z" />
    <glyph glyph-name="oslashacute" unicode="&#x1ff;" horiz-adv-x="502" 
d="M228 34v-39c-48 2 -88 17 -119 48l-39 -53c-8 6 -16 12 -24 17l44 59c-28 41 -43 101 -43 182c0 164 76 247 181 252v-40c-77 -9 -137 -64 -137 -213c0 -63 10 -110 28 -143c79 105 156 211 235 316c-20 22 -47 36 -82 40v40c46 -3 82 -19 109 -45l39 52
c7 -5 15 -12 23 -17l-43 -57c34 -46 49 -113 49 -186c0 -159 -66 -247 -177 -252v39c102 9 132 103 132 215c0 55 -9 108 -32 147l-236 -317c23 -28 55 -42 92 -45zM250 565l-26 16l87 150l46 -25z" />
    <glyph glyph-name="scaron" unicode="&#x161;" horiz-adv-x="438" 
d="M245 463v39c56 -3 104 -18 143 -44l-21 -34c-34 22 -78 36 -122 39zM201 33v-40c-66 2 -124 21 -173 61l24 34c42 -34 92 -51 149 -55zM245 -6v39c57 6 115 32 115 102c0 62 -56 87 -136 102c-101 20 -169 45 -169 130c0 75 56 129 146 135v-40c-60 -3 -104 -37 -104 -92
c0 -53 36 -74 137 -94c94 -19 170 -51 170 -141c0 -73 -55 -135 -159 -141zM222 605l126 96l21 -20l-126 -124h-37l-132 124l21 21z" />
    <glyph glyph-name="zcaron" unicode="&#x17e;" horiz-adv-x="402" 
d="M371 457l-332 -457h-20v40l302 417h-282v38h332v-38zM94 0l30 40h255v-40h-285zM200 605l126 96l21 -20l-126 -124h-37l-132 124l21 21z" />
    <glyph glyph-name="cent" unicode="&#xa2;" 
d="M66 222h43c6 -113 56 -178 155 -188v423c-91 -11 -147 -74 -154 -184h-43c9 155 99 218 197 226v84h30v-82c53 -3 99 -24 136 -55l-27 -32c-27 25 -68 44 -109 45v-425c48 1 89 23 115 46c9 -11 18 -21 26 -32c-37 -32 -80 -53 -141 -55v-83h-30v84
c-108 7 -192 70 -198 228z" />
    <glyph glyph-name="partialdiff" unicode="&#x2202;" horiz-adv-x="519" 
d="M472 351c0 -230 -93 -361 -230 -361c-117 0 -195 78 -195 221c0 138 98 221 194 221c35 0 82 -3 139 -44v-43c-47 39 -100 47 -133 47c-97 0 -155 -87 -155 -179c0 -133 67 -183 153 -183c131 0 183 154 183 315c0 197 -81 333 -237 333c-14 0 -39 -2 -55 -4l-4 36
c22 4 46 5 63 5c198 0 277 -174 277 -364z" />
    <glyph glyph-name="product" unicode="&#x220f;" horiz-adv-x="625" 
d="M126 696l-1 -793h-46v793h47zM177 655v41h369v-793h-47v752h-322z" />
    <glyph glyph-name="summation" unicode="&#x2211;" horiz-adv-x="484" 
d="M149 655l-22 41h314v-41h-292zM122 -96l23 43h320v-43h-343zM274 306l-209 -402h-30v41l185 361l-183 349v41h32z" />
    <glyph glyph-name="minus" unicode="&#x2212;" horiz-adv-x="466" 
d="M438 261h-413v38h413v-38z" />
    <glyph glyph-name="radical" unicode="&#x221a;" horiz-adv-x="562" 
d="M538 800l-215 -886h-41l-166 435l-72 -27l-13 33l110 41l158 -419l197 823h42z" />
    <glyph glyph-name="infinity" unicode="&#x221e;" horiz-adv-x="728" 
d="M366 293c53 69 118 119 176 119c79 0 138 -59 138 -140c0 -85 -63 -145 -141 -145c-68 0 -119 53 -175 119c-56 -68 -105 -119 -177 -119c-76 0 -138 58 -138 145c0 79 61 140 140 140c63 0 134 -60 177 -119zM541 379c-57 0 -115 -57 -154 -109c40 -50 96 -110 152 -110
c58 0 108 51 108 112c0 57 -49 107 -106 107zM189 379c-57 0 -107 -51 -107 -107c0 -62 50 -112 108 -112c55 0 115 59 152 110c-35 49 -96 109 -153 109z" />
    <glyph glyph-name="integral" unicode="&#x222b;" horiz-adv-x="316" 
d="M139 398c0 267 26 379 153 379c9 -1 27 -2 39 -6c-2 -11 -6 -23 -8 -34c-15 3 -31 4 -38 4c-116 0 -94 -156 -106 -520c-9 -269 -32 -379 -148 -379c-11 0 -35 2 -50 7l10 33c13 -4 33 -4 40 -4c85 0 108 96 108 520z" />
    <glyph glyph-name="approxequal" unicode="&#x2248;" horiz-adv-x="476" 
d="M352 320c-39 0 -172 37 -209 37c-11 0 -23 -3 -37 -17l-22 -22l-22 14c14 42 41 66 75 66c41 0 174 -36 209 -36c12 0 20 4 33 16l22 21l22 -14c-14 -38 -37 -65 -71 -65zM352 160c-39 0 -172 37 -209 37c-11 0 -23 -3 -37 -17l-22 -22l-22 14c14 42 41 66 75 66
c41 0 174 -36 209 -36c12 0 20 4 33 16l22 21l22 -14c-14 -38 -37 -65 -71 -65z" />
    <glyph glyph-name="notequal" unicode="&#x2260;" horiz-adv-x="476" 
d="M25 339v38h257l94 135h35l-92 -135h119v-38h-145l-94 -138h239v-39h-267l-90 -130h-36l89 130h-109v39h136l95 138h-231z" />
    <glyph glyph-name="lessequal" unicode="&#x2264;" horiz-adv-x="476" 
d="M439 0h-413v38h413v-38zM440 92l-415 171v35c138 57 276 115 415 171v-41l-367 -147l367 -148v-41z" />
    <glyph glyph-name="greaterequal" unicode="&#x2265;" horiz-adv-x="476" 
d="M440 262c-139 -56 -277 -114 -415 -170v41l367 147l-367 147v42c138 -57 276 -115 415 -171v-36zM439 0h-413v37h413v-37z" />
    <glyph glyph-name="gradient" unicode="&#x2207;" horiz-adv-x="585" 
d="M296 57l224 639h51l-253 -696h-49l-254 696h452l-15 -41h-372l213 -598h3z" />
    <glyph glyph-name="fraction" unicode="&#x2044;" horiz-adv-x="130" 
d="M-133 -24c-11 3 -22 5 -33 7l427 734c11 -2 22 -4 33 -7z" />
    <glyph glyph-name="fraction" unicode="&#x2215;" horiz-adv-x="130" 
d="M-133 -24c-11 3 -22 5 -33 7l427 734c11 -2 22 -4 33 -7z" />
    <glyph glyph-name="lozenge" unicode="&#x25ca;" horiz-adv-x="460" 
d="M437 263c-61 -115 -123 -229 -185 -342h-44l-188 342c62 112 126 231 188 343h44zM387 263l-157 291l-159 -291c53 -95 107 -195 158 -290h2z" />
    <glyph glyph-name="scommaaccent" unicode="&#x219;" horiz-adv-x="438" 
d="M245 463v39c56 -3 104 -18 143 -44l-21 -34c-34 22 -78 36 -122 39zM201 33v-40c-66 2 -124 21 -173 61l24 34c42 -34 92 -51 149 -55zM245 -6v39c57 6 115 32 115 102c0 62 -56 87 -136 102c-101 20 -169 45 -169 130c0 75 56 129 146 135v-40c-60 -3 -104 -37 -104 -92
c0 -53 36 -74 137 -94c94 -19 170 -51 170 -141c0 -73 -55 -135 -159 -141zM212 -245h-28c9 34 19 68 29 101h-17v66h58v-67z" />
    <glyph glyph-name="primemod" unicode="&#x2b9;" horiz-adv-x="194" 
d="M131 688l53 -15l-120 -250l-31 10z" />
    <glyph glyph-name="schwa" unicode="&#x259;" horiz-adv-x="471" 
d="M224 500c100 0 210 -43 210 -252c0 -184 -91 -248 -176 -254v39c81 11 131 77 131 212c0 126 -38 216 -166 216c-45 0 -91 -14 -125 -40c-8 10 -16 20 -23 31c42 33 96 48 149 48zM338 253v-37h-253c2 -112 48 -173 123 -183v-39c-120 9 -168 108 -168 235v24h298z" />
    <glyph glyph-name="perthousand" unicode="&#x2030;" horiz-adv-x="1028" 
d="M197 283v34c45 4 64 39 64 82v182c0 43 -19 76 -64 81v35c61 -5 100 -49 100 -113v-189c0 -63 -40 -108 -100 -112zM154 317v-34c-60 4 -97 47 -97 111v190c0 64 39 108 97 112v-34c-43 -7 -61 -39 -61 -80v-184c0 -42 17 -74 61 -81zM580 0v35c45 4 64 38 64 81v183
c0 43 -19 75 -64 81v34c61 -4 100 -48 100 -112v-189c0 -63 -41 -108 -100 -113zM537 35v-35c-60 5 -98 48 -98 112v190c0 63 40 108 98 112v-34c-44 -8 -61 -39 -61 -80v-184c0 -43 17 -75 61 -81zM871 0v35c45 4 64 38 64 81v183c0 43 -19 75 -64 81v34
c62 -4 101 -48 101 -112v-189c0 -63 -41 -108 -101 -113zM831 35v-35c-61 5 -100 48 -100 112v190c0 63 41 108 100 112v-34c-44 -8 -62 -39 -62 -80v-184c0 -43 18 -75 62 -81zM170 -24c-11 3 -22 5 -33 7l427 734c11 -2 22 -4 33 -7z" />
    <glyph glyph-name="percent" unicode="%" horiz-adv-x="738" 
d="M198 283v34c44 4 64 39 64 82v182c0 43 -20 76 -64 81v35c61 -5 100 -49 100 -113v-189c0 -63 -41 -108 -100 -112zM155 317v-34c-60 4 -98 47 -98 111v190c0 64 40 108 98 112v-34c-44 -7 -61 -39 -61 -80v-184c0 -42 17 -74 61 -81zM580 0v35c45 4 65 38 65 81v183
c0 43 -20 75 -65 81v34c62 -4 101 -48 101 -112v-189c0 -63 -41 -108 -101 -113zM538 35v-35c-61 5 -98 48 -98 112v190c0 63 39 108 98 112v-34c-44 -8 -62 -39 -62 -80v-184c0 -43 18 -75 62 -81zM171 -24c-11 3 -22 5 -33 7l427 734c11 -2 22 -4 33 -7z" />
    <glyph glyph-name="onequarter" unicode="&#xbc;" horiz-adv-x="754" 
d="M467 66l17 32h111v127h37v-127h40v-32h-40v-66h-37v66h-128zM596 419l-180 -353h-25v29l163 324h42zM158 282v372c-23 -13 -45 -26 -67 -40v39l68 42h36v-413h-37zM145 -24c-11 3 -22 5 -33 7l427 734c11 -2 22 -4 33 -7z" />
    <glyph glyph-name="onehalf" unicode="&#xbd;" horiz-adv-x="754" 
d="M142 282v372l-67 -40v39l69 42h35v-413h-37zM508 0l30 34h140v-34h-170zM648 232c-67 -77 -134 -155 -202 -232h-18v32c64 73 126 146 190 219c19 21 24 42 24 62c0 38 -30 70 -85 70c-41 0 -75 -25 -87 -63l-36 6c14 55 67 90 124 90c77 0 122 -43 122 -102
c0 -24 -7 -54 -32 -82zM133 -24c-11 3 -22 5 -33 7l427 734c11 -2 22 -4 33 -7z" />
    <glyph glyph-name="threequarters" unicode="&#xbe;" horiz-adv-x="754" 
d="M143 697v-34c-27 -6 -51 -24 -60 -51l-37 6c14 42 51 74 97 79zM143 310v-34c-46 4 -86 26 -101 79l38 5c9 -26 31 -47 63 -50zM141 480v32h27c48 0 85 30 85 75c0 38 -23 68 -64 76v34c70 -7 101 -56 101 -107c0 -30 -15 -75 -64 -93c56 -18 71 -70 71 -100
c0 -64 -40 -114 -108 -120v34c46 7 71 40 71 85c0 55 -38 84 -87 84h-32zM504 66l17 32h111v127h37v-127h40v-32h-40v-66h-37v66h-128zM633 419l-180 -353h-25v29l163 324h42zM200 -24c-11 3 -22 5 -33 7l427 734c11 -2 22 -4 33 -7z" />
    <glyph glyph-name="onesuperior" unicode="&#xb9;" horiz-adv-x="225" 
d="M106 366v373c-22 -14 -44 -26 -66 -40v38l68 42h36v-413h-38z" />
    <glyph glyph-name="threesuperior" unicode="&#xb3;" horiz-adv-x="283" 
d="M112 783v-33c-27 -6 -51 -24 -60 -51l-37 6c14 41 51 73 97 78zM112 397v-34c-46 4 -86 26 -101 79c13 2 25 3 38 4c9 -26 31 -46 63 -49zM110 567v32h27c48 0 85 29 85 74c0 39 -23 69 -64 76v35c70 -7 101 -57 101 -107c0 -30 -15 -75 -64 -93c56 -18 71 -71 71 -100
c0 -64 -40 -114 -108 -120v33c46 7 71 41 71 86c0 54 -38 84 -87 84h-32z" />
    <glyph glyph-name="twosuperior" unicode="&#xb2;" horiz-adv-x="286" 
d="M232 598l-202 -231h-18v32l190 219c19 21 24 43 24 61c0 39 -30 71 -85 71c-41 0 -75 -25 -87 -64l-36 7c14 55 67 90 124 90c77 0 122 -43 122 -103c0 -24 -7 -53 -32 -82zM92 367l30 34h140v-34h-170z" />
    <glyph glyph-name="ordfeminine" unicode="&#xaa;" horiz-adv-x="327" 
d="M221 316c2 -10 4 -19 7 -29c-23 -13 -54 -17 -83 -17c-68 0 -124 33 -124 96c0 54 38 94 113 94h90v-31h-84c-50 0 -83 -20 -83 -62c0 -43 37 -64 93 -64c36 0 52 5 71 13zM160 575c-31 0 -63 -7 -95 -34l-23 25c32 28 69 42 120 42c73 0 130 -22 130 -106v-227h-36v225
c0 47 -26 75 -96 75z" />
    <glyph glyph-name="ordmasculine" unicode="&#xba;" horiz-adv-x="338" 
d="M154 305v-33c-78 3 -128 56 -128 168c0 107 55 162 128 166v-34c-52 -6 -90 -40 -90 -133s36 -129 90 -134zM186 272v33c68 6 88 65 88 134s-21 127 -88 134v33c91 -7 124 -82 124 -167c0 -105 -47 -162 -124 -167z" />
    <glyph glyph-name="uni021A" unicode="&#x21a;" horiz-adv-x="504" 
d="M271 696v-696h-46v655h-207v41h253zM315 655v41h171v-41h-171zM237 -245h-28c9 34 19 68 29 101h-17v66h58v-67z" />
    <glyph glyph-name="uni021B" unicode="&#x21b;" horiz-adv-x="282" 
d="M89 416h43v-289c0 -62 16 -88 79 -88h56v-39h-71c-74 0 -107 38 -107 113v303zM13 458v38h76v124h43v-124h130v-38h-249zM104 -245h-28c9 34 19 68 29 101h-17v66h58v-67z" />
    <glyph glyph-name="Scaron" unicode="&#x160;" horiz-adv-x="538" 
d="M291 658v44c71 -2 133 -22 183 -53l-23 -39c-47 27 -99 44 -160 48zM246 37v-43c-81 3 -161 26 -224 74l27 38c58 -44 125 -66 197 -69zM291 -6v42c96 5 167 57 167 144c0 211 -404 112 -404 339c0 105 77 174 193 182v-44c-79 -6 -146 -45 -146 -135
c0 -185 405 -97 405 -338c0 -109 -83 -184 -215 -190zM263 786l129 83l17 -21l-126 -109h-37l-131 110l18 21z" />
    <glyph glyph-name="Zcaron" unicode="&#x17d;" horiz-adv-x="488" 
d="M103 0l27 42h329v-42h-356zM26 0v39l406 657h26v-37l-406 -659h-26zM379 696c-8 -14 -16 -28 -25 -42h-300v42h325zM249 786l129 83l17 -21l-126 -109h-37l-131 110l18 21z" />
    <glyph glyph-name="Ydieresis" unicode="&#x178;" horiz-adv-x="481" 
d="M58 696l204 -405v-291h-44v285l-208 411h48zM287 336l-22 47l158 313h47zM144 756v82h45v-82h-45zM297 756v82h44v-82h-44z" />
    <glyph glyph-name="Agrave" unicode="&#xc0;" horiz-adv-x="587" 
d="M63 0h-48c85 232 172 464 257 696h40c55 -148 110 -294 164 -441h-47l-137 375h-2zM187 211h305c26 -71 53 -141 79 -211h-49l-63 170h-287zM309 759l-20 -22l-151 93l33 39z" />
    <glyph glyph-name="Aacute" unicode="&#xc1;" horiz-adv-x="587" 
d="M63 0h-48c85 232 172 464 257 696h40c55 -148 110 -294 164 -441h-47l-137 375h-2zM187 211h305c26 -71 53 -141 79 -211h-49l-63 170h-287zM278 738l-19 23l139 110l31 -40z" />
    <glyph glyph-name="Acircumflex" unicode="&#xc2;" horiz-adv-x="587" 
d="M63 0h-48c85 232 172 464 257 696h40c55 -148 110 -294 164 -441h-47l-137 375h-2zM187 211h305c26 -71 53 -141 79 -211h-49l-63 170h-287zM422 739l-129 84l-130 -85l-18 22l132 109h37l126 -109z" />
    <glyph glyph-name="Atilde" unicode="&#xc3;" horiz-adv-x="587" 
d="M63 0h-48c85 232 172 464 257 696h40c55 -148 110 -294 164 -441h-47l-137 375h-2zM187 211h305c26 -71 53 -141 79 -211h-49l-63 170h-287zM367 762c-39 0 -102 37 -139 37c-11 0 -23 -3 -37 -17l-22 -22l-22 14c14 42 41 66 75 66c41 0 104 -36 139 -36
c12 0 20 4 33 16l22 21l22 -14c-14 -38 -37 -65 -71 -65z" />
    <glyph glyph-name="Adieresis" unicode="&#xc4;" horiz-adv-x="587" 
d="M63 0h-48c85 232 172 464 257 696h40c55 -148 110 -294 164 -441h-47l-137 375h-2zM187 211h305c26 -71 53 -141 79 -211h-49l-63 170h-287zM190 762v82h45v-82h-45zM343 762v82h44v-82h-44z" />
    <glyph glyph-name="Aring" unicode="&#xc5;" horiz-adv-x="587" 
d="M63 0h-48c82 224 166 449 248 673c-38 12 -66 47 -66 89c0 50 41 90 92 90c50 0 92 -40 92 -90c0 -40 -26 -74 -62 -87l157 -420h-47l-137 375h-2zM187 211h305c26 -71 53 -141 79 -211h-49l-63 170h-287zM289 824c-34 0 -62 -29 -62 -62c0 -34 28 -63 62 -63
s62 29 62 63c0 33 -28 62 -62 62z" />
    <glyph glyph-name="Egrave" unicode="&#xc8;" horiz-adv-x="529" 
d="M167 653v43h332v-43h-332zM167 341v42h265v-42h-265zM167 0v43h346v-43h-346zM123 696v-696h-46v696h46zM324 759l-20 -22l-151 93l33 39z" />
    <glyph glyph-name="Eacute" unicode="&#xc9;" horiz-adv-x="529" 
d="M167 653v43h332v-43h-332zM167 341v42h265v-42h-265zM167 0v43h346v-43h-346zM123 696v-696h-46v696h46zM256 738l-19 23l139 110l31 -40z" />
    <glyph glyph-name="Ecircumflex" unicode="&#xca;" horiz-adv-x="529" 
d="M167 653v43h332v-43h-332zM167 341v42h265v-42h-265zM167 0v43h346v-43h-346zM123 696v-696h-46v696h46zM412 739l-129 84l-130 -85l-18 22l132 109h37l126 -109z" />
    <glyph glyph-name="Edieresis" unicode="&#xcb;" horiz-adv-x="529" 
d="M167 653v43h332v-43h-332zM167 341v42h265v-42h-265zM167 0v43h346v-43h-346zM123 696v-696h-46v696h46zM189 762v82h45v-82h-45zM342 762v82h44v-82h-44z" />
    <glyph glyph-name="Igrave" unicode="&#xcc;" horiz-adv-x="220" 
d="M86 0v696h47v-696h-47zM145 759l-20 -22l-151 93l33 39z" />
    <glyph glyph-name="Iacute" unicode="&#xcd;" horiz-adv-x="220" 
d="M86 0v696h47v-696h-47zM109 738l-19 23l139 110l31 -40z" />
    <glyph glyph-name="Icircumflex" unicode="&#xce;" horiz-adv-x="220" 
d="M86 0v696h47v-696h-47zM239 739l-129 84l-130 -85l-18 22l132 109h37l126 -109z" />
    <glyph glyph-name="Idieresis" unicode="&#xcf;" horiz-adv-x="220" 
d="M86 0v696h47v-696h-47zM11 762v82h45v-82h-45zM164 762v82h44v-82h-44z" />
    <glyph glyph-name="Ntilde" unicode="&#xd1;" horiz-adv-x="658" 
d="M76 601c16 -23 31 -47 47 -71v-530h-47v601zM580 92c-15 23 -30 46 -46 69v535h46v-604zM76 687v9h48l454 -686v-10h-46c-151 229 -304 458 -456 687zM408 762c-39 0 -102 37 -139 37c-11 0 -23 -3 -37 -17l-22 -22l-22 14c14 42 41 66 75 66c41 0 104 -36 139 -36
c12 0 20 4 33 16l22 21l22 -14c-14 -38 -37 -65 -71 -65z" />
    <glyph glyph-name="Ograve" unicode="&#xd2;" horiz-adv-x="592" 
d="M274 39v-45c-150 10 -217 115 -217 241v218c0 126 70 239 217 247v-45c-117 -10 -171 -98 -171 -204v-206c0 -106 53 -197 171 -206zM318 -6v44c111 7 170 92 170 211v202c0 108 -55 197 -170 204v45c145 -8 217 -111 217 -247v-207c0 -146 -83 -247 -217 -252zM324 759
l-20 -22l-151 93l33 39z" />
    <glyph glyph-name="Oacute" unicode="&#xd3;" horiz-adv-x="592" 
d="M274 39v-45c-150 10 -217 115 -217 241v218c0 126 70 239 217 247v-45c-117 -10 -171 -98 -171 -204v-206c0 -106 53 -197 171 -206zM318 -6v44c111 7 170 92 170 211v202c0 108 -55 197 -170 204v45c145 -8 217 -111 217 -247v-207c0 -146 -83 -247 -217 -252zM296 738
l-19 23l139 110l31 -40z" />
    <glyph glyph-name="Ocircumflex" unicode="&#xd4;" horiz-adv-x="592" 
d="M274 39v-45c-150 10 -217 115 -217 241v218c0 126 70 239 217 247v-45c-117 -10 -171 -98 -171 -204v-206c0 -106 53 -197 171 -206zM318 -6v44c111 7 170 92 170 211v202c0 108 -55 197 -170 204v45c145 -8 217 -111 217 -247v-207c0 -146 -83 -247 -217 -252zM422 739
l-129 84l-130 -85l-18 22l132 109h37l126 -109z" />
    <glyph glyph-name="Otilde" unicode="&#xd5;" horiz-adv-x="592" 
d="M274 39v-45c-150 10 -217 115 -217 241v218c0 126 70 239 217 247v-45c-117 -10 -171 -98 -171 -204v-206c0 -106 53 -197 171 -206zM318 -6v44c111 7 170 92 170 211v202c0 108 -55 197 -170 204v45c145 -8 217 -111 217 -247v-207c0 -146 -83 -247 -217 -252zM370 762
c-39 0 -102 37 -139 37c-11 0 -23 -3 -37 -17l-22 -22l-22 14c14 42 41 66 75 66c41 0 104 -36 139 -36c12 0 20 4 33 16l22 21l22 -14c-14 -38 -37 -65 -71 -65z" />
    <glyph glyph-name="Odieresis" unicode="&#xd6;" horiz-adv-x="592" 
d="M274 39v-45c-150 10 -217 115 -217 241v218c0 126 70 239 217 247v-45c-117 -10 -171 -98 -171 -204v-206c0 -106 53 -197 171 -206zM318 -6v44c111 7 170 92 170 211v202c0 108 -55 197 -170 204v45c145 -8 217 -111 217 -247v-207c0 -146 -83 -247 -217 -252zM191 762
v82h45v-82h-45zM344 762v82h44v-82h-44z" />
    <glyph glyph-name="Ugrave" unicode="&#xd9;" horiz-adv-x="620" 
d="M290 39v-44c-148 8 -218 101 -218 244v457h46v-447c0 -118 53 -196 172 -210zM334 -4v43c111 8 168 85 168 203v454h47v-464c0 -134 -79 -233 -215 -236zM347 759l-20 -22l-151 93l33 39z" />
    <glyph glyph-name="Uacute" unicode="&#xda;" horiz-adv-x="620" 
d="M290 39v-44c-148 8 -218 101 -218 244v457h46v-447c0 -118 53 -196 172 -210zM334 -4v43c111 8 168 85 168 203v454h47v-464c0 -134 -79 -233 -215 -236zM284 738l-19 23l139 110l31 -40z" />
    <glyph glyph-name="Ucircumflex" unicode="&#xdb;" horiz-adv-x="620" 
d="M290 39v-44c-148 8 -218 101 -218 244v457h46v-447c0 -118 53 -196 172 -210zM334 -4v43c111 8 168 85 168 203v454h47v-464c0 -134 -79 -233 -215 -236zM439 739l-129 84l-130 -85l-18 22l132 109h37l126 -109z" />
    <glyph glyph-name="Udieresis" unicode="&#xdc;" horiz-adv-x="620" 
d="M290 39v-44c-148 8 -218 101 -218 244v457h46v-447c0 -118 53 -196 172 -210zM334 -4v43c111 8 168 85 168 203v454h47v-464c0 -134 -79 -233 -215 -236zM204 762v82h45v-82h-45zM357 762v82h44v-82h-44z" />
    <glyph glyph-name="Yacute" unicode="&#xdd;" horiz-adv-x="481" 
d="M58 696l204 -405v-291h-44v285l-208 411h48zM287 336l-22 47l158 313h47zM223 738l-19 23l139 110l31 -40z" />
    <glyph glyph-name="Amacron" unicode="&#x100;" horiz-adv-x="587" 
d="M63 0h-48c85 232 172 464 257 696h40c55 -148 110 -294 164 -441h-47l-137 375h-2zM187 211h305c26 -71 53 -141 79 -211h-49l-63 170h-287zM164 785v41h255v-41h-255z" />
    <glyph glyph-name="Abreve" unicode="&#x102;" horiz-adv-x="587" 
d="M63 0h-48c85 232 172 464 257 696h40c55 -148 110 -294 164 -441h-47l-137 375h-2zM187 211h305c26 -71 53 -141 79 -211h-49l-63 170h-287zM291 781c50 0 84 34 89 73h38c-7 -50 -42 -110 -127 -110c-84 0 -122 60 -127 110h38c6 -39 44 -73 89 -73z" />
    <glyph glyph-name="Cacute" unicode="&#x106;" horiz-adv-x="550" 
d="M322 657v43c94 -5 164 -58 197 -130l-43 -20c-25 57 -82 100 -154 107zM278 700v-43c-115 -14 -165 -103 -165 -206v-207c0 -111 59 -208 195 -208c85 0 143 46 175 117l42 -19c-35 -86 -113 -141 -218 -141c-168 0 -240 117 -240 253v208c0 124 69 233 211 246zM272 738
l-19 23l139 110l31 -40z" />
    <glyph glyph-name="Ccircumflex" unicode="&#x108;" horiz-adv-x="550" 
d="M322 657v43c94 -5 164 -58 197 -130l-43 -20c-25 57 -82 100 -154 107zM278 700v-43c-115 -14 -165 -103 -165 -206v-207c0 -111 59 -208 195 -208c85 0 143 46 175 117l42 -19c-35 -86 -113 -141 -218 -141c-168 0 -240 117 -240 253v208c0 124 69 233 211 246zM433 739
l-129 84l-130 -85l-18 22l132 109h37l126 -109z" />
    <glyph glyph-name="Cdotaccent" unicode="&#x10a;" horiz-adv-x="550" 
d="M322 657v43c94 -5 164 -58 197 -130l-43 -20c-25 57 -82 100 -154 107zM278 700v-43c-115 -14 -165 -103 -165 -206v-207c0 -111 59 -208 195 -208c85 0 143 46 175 117l42 -19c-35 -86 -113 -141 -218 -141c-168 0 -240 117 -240 253v208c0 124 69 233 211 246zM281 761
v82h46v-82h-46z" />
    <glyph glyph-name="Ccaron" unicode="&#x10c;" horiz-adv-x="550" 
d="M322 657v43c94 -5 164 -58 197 -130l-43 -20c-25 57 -82 100 -154 107zM278 700v-43c-115 -14 -165 -103 -165 -206v-207c0 -111 59 -208 195 -208c85 0 143 46 175 117l42 -19c-35 -86 -113 -141 -218 -141c-168 0 -240 117 -240 253v208c0 124 69 233 211 246zM302 791
l129 83l17 -21l-126 -109h-37l-131 110l18 21z" />
    <glyph glyph-name="Dcaron" unicode="&#x10e;" horiz-adv-x="607" 
d="M124 696v-696h-47v696h47zM168 0v43h126c158 0 209 97 209 231v143c0 178 -82 236 -209 236h-126v43h133c104 0 182 -37 224 -126c23 -48 25 -122 25 -209c0 -100 -1 -174 -24 -227c-42 -100 -126 -134 -239 -134h-119zM261 792l129 83l17 -21l-126 -109h-37l-131 110
l18 21z" />
    <glyph glyph-name="Emacron" unicode="&#x112;" horiz-adv-x="529" 
d="M167 653v43h332v-43h-332zM167 341v42h265v-42h-265zM167 0v43h346v-43h-346zM123 696v-696h-46v696h46zM164 785v41h255v-41h-255z" />
    <glyph glyph-name="Ebreve" unicode="&#x114;" horiz-adv-x="529" 
d="M167 653v43h332v-43h-332zM167 341v42h265v-42h-265zM167 0v43h346v-43h-346zM123 696v-696h-46v696h46zM286 785c50 0 84 34 89 73h38c-7 -50 -42 -110 -127 -110c-84 0 -122 60 -127 110h38c6 -39 44 -73 89 -73z" />
    <glyph glyph-name="Edotaccent" unicode="&#x116;" horiz-adv-x="529" 
d="M167 653v43h332v-43h-332zM167 341v42h265v-42h-265zM167 0v43h346v-43h-346zM123 696v-696h-46v696h46zM263 762v82h46v-82h-46z" />
    <glyph glyph-name="Ecaron" unicode="&#x11a;" horiz-adv-x="529" 
d="M167 653v43h332v-43h-332zM167 341v42h265v-42h-265zM167 0v43h346v-43h-346zM123 696v-696h-46v696h46zM275 796l129 83l17 -21l-126 -109h-37l-131 110l18 21z" />
    <glyph glyph-name="Gcircumflex" unicode="&#x11c;" horiz-adv-x="594" 
d="M491 309h-158v43h204v-112c0 -131 -78 -242 -221 -246v40c115 5 175 99 175 199v76zM316 656v44c94 -3 168 -58 201 -130l-40 -20c-29 57 -86 101 -161 106zM271 699v-44c-113 -8 -169 -101 -169 -205v-208c0 -108 53 -197 169 -207v-41c-147 7 -215 114 -215 248v211
c0 125 73 239 215 246zM425 742l-129 84l-130 -85l-18 22l132 109h37l126 -109z" />
    <glyph glyph-name="Gbreve" unicode="&#x11e;" horiz-adv-x="594" 
d="M491 309h-158v43h204v-112c0 -131 -78 -242 -221 -246v40c115 5 175 99 175 199v76zM316 656v44c94 -3 168 -58 201 -130l-40 -20c-29 57 -86 101 -161 106zM271 699v-44c-113 -8 -169 -101 -169 -205v-208c0 -108 53 -197 169 -207v-41c-147 7 -215 114 -215 248v211
c0 125 73 239 215 246zM291 783c50 0 84 34 89 73h38c-7 -50 -42 -110 -127 -110c-84 0 -122 60 -127 110h38c6 -39 44 -73 89 -73z" />
    <glyph glyph-name="Gdotaccent" unicode="&#x120;" horiz-adv-x="594" 
d="M491 309h-158v43h204v-112c0 -131 -78 -242 -221 -246v40c115 5 175 99 175 199v76zM316 656v44c94 -3 168 -58 201 -130l-40 -20c-29 57 -86 101 -161 106zM271 699v-44c-113 -8 -169 -101 -169 -205v-208c0 -108 53 -197 169 -207v-41c-147 7 -215 114 -215 248v211
c0 125 73 239 215 246zM270 762v82h46v-82h-46z" />
    <glyph glyph-name="Gcommaaccent" unicode="&#x122;" horiz-adv-x="594" 
d="M491 309h-158v43h204v-112c0 -131 -78 -242 -221 -246v40c115 5 175 99 175 199v76zM316 656v44c94 -3 168 -58 201 -130l-40 -20c-29 57 -86 101 -161 106zM271 699v-44c-113 -8 -169 -101 -169 -205v-208c0 -108 53 -197 169 -207v-41c-147 7 -215 114 -215 248v211
c0 125 73 239 215 246zM288 -233h-28c9 34 19 68 29 101h-17v66h58v-67z" />
    <glyph glyph-name="Hcircumflex" unicode="&#x124;" horiz-adv-x="623" 
d="M546 424h-47v272h47v-272zM167 339v41h379v-380h-47v339h-332zM123 696v-696h-47v696h47zM435 741l-129 84l-130 -85l-18 22l132 109h37l126 -109z" />
    <glyph glyph-name="Itilde" unicode="&#x128;" horiz-adv-x="220" 
d="M86 0v696h47v-696h-47zM186 762c-39 0 -102 37 -139 37c-11 0 -23 -3 -37 -17l-22 -22l-22 14c14 42 41 66 75 66c41 0 104 -36 139 -36c12 0 20 4 33 16l22 21l22 -14c-14 -38 -37 -65 -71 -65z" />
    <glyph glyph-name="Imacron" unicode="&#x12a;" horiz-adv-x="220" 
d="M86 0v696h47v-696h-47zM-17 785v41h255v-41h-255z" />
    <glyph glyph-name="Ibreve" unicode="&#x12c;" horiz-adv-x="214" 
d="M84 0v696h47v-696h-47zM110 781c50 0 84 34 89 73h38c-7 -50 -42 -110 -127 -110c-84 0 -122 60 -127 110h38c6 -39 44 -73 89 -73z" />
    <glyph glyph-name="Idotaccent" unicode="&#x130;" horiz-adv-x="220" 
d="M86 0v696h47v-696h-47zM88 765v82h46v-82h-46z" />
    <glyph glyph-name="Jcircumflex" unicode="&#x134;" horiz-adv-x="470" 
d="M173 -5c-55 0 -121 20 -158 54l28 34c37 -32 92 -44 130 -44c91 0 162 43 162 175v483h46v-496c0 -146 -98 -206 -208 -206zM487 741l-129 84l-130 -85l-18 22l132 109h37l126 -109z" />
    <glyph glyph-name="Kcommaaccent" unicode="&#x136;" horiz-adv-x="591" 
d="M123 695l-1 -695h-45v695h46zM167 238v67l319 391h55zM317 352l31 37l231 -389h-54zM296 -225h-28c9 34 19 68 29 101h-17v66h58v-67z" />
    <glyph glyph-name="Lacute" unicode="&#x139;" horiz-adv-x="514" 
d="M123 696l1 -696h-47v696h46zM168 0v43h331v-43h-331zM97 738l-19 23l139 110l31 -40z" />
    <glyph glyph-name="Lcommaaccent" unicode="&#x13b;" horiz-adv-x="514" 
d="M123 696l1 -696h-47v696h46zM168 0v43h331v-43h-331zM272 -245h-28c9 34 19 68 29 101h-17v66h58v-67z" />
    <glyph glyph-name="Lcaron" unicode="&#x13d;" horiz-adv-x="514" 
d="M123 696l1 -696h-47v696h46zM168 0v43h331v-43h-331zM372 509h-28c9 34 19 68 29 101h-17v66h58v-67z" />
    <glyph glyph-name="Ldot" unicode="&#x13f;" horiz-adv-x="514" 
d="M123 696l1 -696h-47v696h46zM168 0v43h331v-43h-331zM326 322v82h46v-82h-46z" />
    <glyph glyph-name="Nacute" unicode="&#x143;" horiz-adv-x="658" 
d="M76 601c16 -23 31 -47 47 -71v-530h-47v601zM580 92c-15 23 -30 46 -46 69v535h46v-604zM76 687v9h48l454 -686v-10h-46c-151 229 -304 458 -456 687zM303 738l-19 23l139 110l31 -40z" />
    <glyph glyph-name="Ncommaaccent" unicode="&#x145;" horiz-adv-x="658" 
d="M76 601c16 -23 31 -47 47 -71v-530h-47v601zM580 92c-15 23 -30 46 -46 69v535h46v-604zM76 687v9h48l454 -686v-10h-46c-151 229 -304 458 -456 687zM309 -225h-28c9 34 19 68 29 101h-17v66h58v-67z" />
    <glyph glyph-name="Ncaron" unicode="&#x147;" horiz-adv-x="658" 
d="M76 601c16 -23 31 -47 47 -71v-530h-47v601zM580 92c-15 23 -30 46 -46 69v535h46v-604zM76 687v9h48l454 -686v-10h-46c-151 229 -304 458 -456 687zM325 793l129 83l17 -21l-126 -109h-37l-131 110l18 21z" />
    <glyph glyph-name="Omacron" unicode="&#x14c;" horiz-adv-x="592" 
d="M274 39v-45c-150 10 -217 115 -217 241v218c0 126 70 239 217 247v-45c-117 -10 -171 -98 -171 -204v-206c0 -106 53 -197 171 -206zM318 -6v44c111 7 170 92 170 211v202c0 108 -55 197 -170 204v45c145 -8 217 -111 217 -247v-207c0 -146 -83 -247 -217 -252zM169 785
v41h255v-41h-255z" />
    <glyph glyph-name="Obreve" unicode="&#x14e;" horiz-adv-x="592" 
d="M274 39v-45c-150 10 -217 115 -217 241v218c0 126 70 239 217 247v-45c-117 -10 -171 -98 -171 -204v-206c0 -106 53 -197 171 -206zM318 -6v44c111 7 170 92 170 211v202c0 108 -55 197 -170 204v45c145 -8 217 -111 217 -247v-207c0 -146 -83 -247 -217 -252zM297 787
c50 0 84 34 89 73h38c-7 -50 -42 -110 -127 -110c-84 0 -122 60 -127 110h38c6 -39 44 -73 89 -73z" />
    <glyph glyph-name="Ohungarumlaut" unicode="&#x150;" horiz-adv-x="592" 
d="M274 39v-45c-150 10 -217 115 -217 241v218c0 126 70 239 217 247v-45c-117 -10 -171 -98 -171 -204v-206c0 -106 53 -197 171 -206zM318 -6v44c111 7 170 92 170 211v202c0 108 -55 197 -170 204v45c145 -8 217 -111 217 -247v-207c0 -146 -83 -247 -217 -252zM195 744
l-20 23l137 109l34 -39zM333 744l-19 23l137 109l34 -39z" />
    <glyph glyph-name="Racute" unicode="&#x154;" horiz-adv-x="576" 
d="M347 279h52l134 -279h-54zM168 655v41h177c118 0 198 -68 198 -180c0 -100 -65 -194 -206 -194h-169v43h160c104 0 166 52 166 151c0 98 -73 139 -161 139h-165zM123 696v-696h-46v696h46zM254 738l-19 23l139 110l31 -40z" />
    <glyph glyph-name="Rcommaaccent" unicode="&#x156;" horiz-adv-x="576" 
d="M347 279h52l134 -279h-54zM168 655v41h177c118 0 198 -68 198 -180c0 -100 -65 -194 -206 -194h-169v43h160c104 0 166 52 166 151c0 98 -73 139 -161 139h-165zM123 696v-696h-46v696h46zM274 -225h-28c9 34 19 68 29 101h-17v66h58v-67z" />
    <glyph glyph-name="Rcaron" unicode="&#x158;" horiz-adv-x="576" 
d="M347 279h52l134 -279h-54zM168 655v41h177c118 0 198 -68 198 -180c0 -100 -65 -194 -206 -194h-169v43h160c104 0 166 52 166 151c0 98 -73 139 -161 139h-165zM123 696v-696h-46v696h46zM260 794l129 83l17 -21l-126 -109h-37l-131 110l18 21z" />
    <glyph glyph-name="Sacute" unicode="&#x15a;" horiz-adv-x="538" 
d="M291 658v44c71 -2 133 -22 183 -53l-23 -39c-47 27 -99 44 -160 48zM246 37v-43c-81 3 -161 26 -224 74l27 38c58 -44 125 -66 197 -69zM291 -6v42c96 5 167 57 167 144c0 211 -404 112 -404 339c0 105 77 174 193 182v-44c-79 -6 -146 -45 -146 -135
c0 -185 405 -97 405 -338c0 -109 -83 -184 -215 -190zM247 742l-19 23l139 110l31 -40z" />
    <glyph glyph-name="Scircumflex" unicode="&#x15c;" horiz-adv-x="538" 
d="M291 658v44c71 -2 133 -22 183 -53l-23 -39c-47 27 -99 44 -160 48zM246 37v-43c-81 3 -161 26 -224 74l27 38c58 -44 125 -66 197 -69zM291 -6v42c96 5 167 57 167 144c0 211 -404 112 -404 339c0 105 77 174 193 182v-44c-79 -6 -146 -45 -146 -135
c0 -185 405 -97 405 -338c0 -109 -83 -184 -215 -190zM402 746l-129 84l-130 -85l-18 22l132 109h37l126 -109z" />
    <glyph glyph-name="Tcommaaccent" unicode="&#x162;" horiz-adv-x="504" 
d="M271 696v-696h-46v655h-207v41h253zM315 655v41h171v-41h-171zM235 -245h-28c9 34 19 68 29 101h-17v66h58v-67z" />
    <glyph glyph-name="Tcaron" unicode="&#x164;" horiz-adv-x="504" 
d="M271 696v-696h-46v655h-207v41h253zM315 655v41h171v-41h-171zM248 796l129 83l17 -21l-126 -109h-37l-131 110l18 21z" />
    <glyph glyph-name="Utilde" unicode="&#x168;" horiz-adv-x="620" 
d="M290 39v-44c-148 8 -218 101 -218 244v457h46v-447c0 -118 53 -196 172 -210zM334 -4v43c111 8 168 85 168 203v454h47v-464c0 -134 -79 -233 -215 -236zM387 762c-39 0 -102 37 -139 37c-11 0 -23 -3 -37 -17l-22 -22l-22 14c14 42 41 66 75 66c41 0 104 -36 139 -36
c12 0 20 4 33 16l22 21l22 -14c-14 -38 -37 -65 -71 -65z" />
    <glyph glyph-name="Umacron" unicode="&#x16a;" horiz-adv-x="620" 
d="M290 39v-44c-148 8 -218 101 -218 244v457h46v-447c0 -118 53 -196 172 -210zM334 -4v43c111 8 168 85 168 203v454h47v-464c0 -134 -79 -233 -215 -236zM178 785v41h255v-41h-255z" />
    <glyph glyph-name="Ubreve" unicode="&#x16c;" horiz-adv-x="620" 
d="M290 39v-44c-148 8 -218 101 -218 244v457h46v-447c0 -118 53 -196 172 -210zM334 -4v43c111 8 168 85 168 203v454h47v-464c0 -134 -79 -233 -215 -236zM310 751c44 0 78 22 89 73h38c-7 -50 -42 -111 -127 -111s-122 61 -127 111h39c7 -44 46 -73 88 -73z" />
    <glyph glyph-name="Uring" unicode="&#x16e;" horiz-adv-x="620" 
d="M290 39v-44c-148 8 -218 101 -218 244v457h46v-447c0 -118 53 -196 172 -210zM334 -4v43c111 8 168 85 168 203v454h47v-464c0 -134 -79 -233 -215 -236zM309 715c-51 0 -92 42 -92 92s41 90 92 90c50 0 92 -40 92 -90s-42 -92 -92 -92zM309 869c-34 0 -62 -29 -62 -62
c0 -34 28 -63 62 -63s62 29 62 63c0 33 -28 62 -62 62z" />
    <glyph glyph-name="Uhungarumlaut" unicode="&#x170;" horiz-adv-x="620" 
d="M290 39v-44c-148 8 -218 101 -218 244v457h46v-447c0 -118 53 -196 172 -210zM334 -4v43c111 8 168 85 168 203v454h47v-464c0 -134 -79 -233 -215 -236zM173 738l-20 23l137 109l34 -39zM311 738l-19 23l137 109l34 -39z" />
    <glyph glyph-name="Wcircumflex" unicode="&#x174;" horiz-adv-x="782" 
d="M253 84l-23 90l139 522h44l189 -696h-45l-167 602l-1 -1zM58 696l171 -696h-47l-172 696h48zM625 84l-23 90l123 522h46zM525 743l-129 84l-130 -85l-18 22l132 109h37l126 -109z" />
    <glyph glyph-name="Ycircumflex" unicode="&#x176;" horiz-adv-x="481" 
d="M58 696l204 -405v-291h-44v285l-208 411h48zM287 336l-22 47l158 313h47zM368 739l-129 84l-130 -85l-18 22l132 109h37l126 -109z" />
    <glyph glyph-name="Zacute" unicode="&#x179;" horiz-adv-x="488" 
d="M103 0l27 42h329v-42h-356zM26 0v39l406 657h26v-37l-406 -659h-26zM379 696c-8 -14 -16 -28 -25 -42h-300v42h325zM219 746l-19 23l139 110l31 -40z" />
    <glyph glyph-name="Zdotaccent" unicode="&#x17b;" horiz-adv-x="488" 
d="M103 0l27 42h329v-42h-356zM26 0v39l406 657h26v-37l-406 -659h-26zM379 696c-8 -14 -16 -28 -25 -42h-300v42h325zM228 760v82h46v-82h-46z" />
    <glyph glyph-name="Scommaaccent" unicode="&#x218;" horiz-adv-x="538" 
d="M291 658v44c71 -2 133 -22 183 -53l-23 -39c-47 27 -99 44 -160 48zM246 37v-43c-81 3 -161 26 -224 74l27 38c58 -44 125 -66 197 -69zM291 -6v42c96 5 167 57 167 144c0 211 -404 112 -404 339c0 105 77 174 193 182v-44c-79 -6 -146 -45 -146 -135
c0 -185 405 -97 405 -338c0 -109 -83 -184 -215 -190zM256 -245h-28c9 34 19 68 29 101h-17v66h58v-67z" />
    </font>
</defs>
</svg>
